<?xml version="1.0" encoding="UTF-8"?>
<svg width="914px" height="914px" viewBox="0 0 914 914" version="1.1" xmlns="http://www.w3.org/2000/svg" xmlns:xlink="http://www.w3.org/1999/xlink">
    <title>Fill 109 Copy</title>
    <g id="Page-1" stroke="none" stroke-width="1" fill="none" fill-rule="evenodd">
        <g id="О-компании" transform="translate(-130, -1211)" fill="#E4DECC">
            <g id="Fill-109-Copy" transform="translate(130, 1211)">
                <path d="M876.262013,457.001899 L876.262013,457.010265 L876.262013,457.010265 C876.24528,485.433195 873.386764,513.82824 867.753396,541.414628 L867.756185,541.414628 C862.100506,569.079092 853.54448,596.302978 842.341887,622.333396 L842.347464,622.336185 C831.16997,648.28016 817.281766,673.209131 801.067706,696.442708 L801.064917,696.442708 C784.892689,719.609362 766.29142,741.25072 745.774248,760.761683 C745.771459,760.764471 745.76867,760.76726 745.765881,760.76726 L745.765881,760.770048 C725.257076,780.275434 702.701294,797.770329 678.734381,812.758384 L678.734381,812.755596 C654.714481,827.779901 629.110545,840.381022 602.633716,850.207609 L602.630927,850.204821 C576.03418,860.084389 548.405578,867.222887 520.51204,871.444638 C499.492885,874.626289 478.200427,876.229662 456.972112,876.229662 C449.877415,876.229662 442.799451,876.048411 435.738219,875.691486 C407.242302,874.263787 379.028053,869.969535 351.876335,862.939788 L351.876335,862.942577 C324.498725,855.859849 297.745805,845.932877 272.353817,833.420987 L272.351028,833.426564 C247.00645,820.945348 222.805279,805.81508 200.430768,788.454032 L200.425191,788.459609 C178.061836,771.115292 157.377336,751.448175 138.940605,729.993645 L138.943394,729.993645 C120.470409,708.519595 104.136431,685.115921 90.401611,660.451856 L90.401611,660.451856 C76.6165924,635.723655 65.330335,609.514775 56.855184,582.539063 L56.8579728,582.539063 C48.4051321,555.702776 42.6853115,527.753886 39.8518948,499.456438 L39.849106,499.456438 C37.0101117,471.292836 37.0101117,442.73327 39.849106,414.56688 L39.8518948,414.56688 C42.6853115,386.27222 48.4023433,358.314965 56.855184,331.470312 L56.8607616,331.470312 C65.3275462,304.51412 76.6054372,278.305239 90.3960334,253.571462 L90.3960334,253.57425 C104.130854,228.910185 120.459254,205.506511 138.940605,184.012942 L138.943394,184.012942 C157.382913,162.5612 178.056258,142.89966 200.408458,125.572074 L200.405669,125.569285 C222.813645,108.188718 247.014817,93.0556616 272.337084,80.5939648 L272.339873,80.5967533 C297.734649,68.0876525 324.487569,58.1578915 351.859602,51.0723754 L351.862391,51.0779523 C378.991798,44.0509942 407.206047,39.7595305 435.724275,38.3206772 L435.724275,38.3206772 C463.90227,36.8874008 492.44002,38.3206772 520.484152,42.5703137 L520.484152,42.5675253 C548.402789,46.7837001 576.042546,53.9277742 602.633716,63.8017657 L602.630927,63.8045542 C629.113334,73.6339301 654.71727,86.2350507 678.734381,101.253779 L678.734381,101.256568 C702.673406,116.227892 725.229188,133.714422 745.757515,153.230962 L745.760304,153.23375 C745.760304,153.23375 745.763093,153.236539 745.765881,153.239327 C766.280265,172.75029 784.887112,194.394436 801.067706,217.572244 L801.062129,217.575032 C817.292921,240.816975 831.181125,265.743157 842.339098,291.667613 L842.336309,291.667613 C853.54448,317.695243 862.100506,344.91634 867.747818,372.57244 L867.750607,372.57244 C873.386764,400.156039 876.24528,428.556661 876.262013,456.993534 L876.262013,456.993534 L876.262013,457.001899 Z M911.944657,413.694087 L883.423641,416.543909 L883.075041,413.998031 C882.659511,410.888881 882.29139,407.768577 881.917691,404.651061 C881.167505,398.271029 880.383853,391.679073 879.134472,385.312984 L878.60739,382.627682 L898.075975,379.337281 L898.583536,381.885948 C899.319778,385.619716 899.950046,389.610025 900.532904,394.275144 L909.554659,393.059369 C908.815628,387.041839 907.691743,380.982482 906.601324,375.098798 C906.135595,372.614267 905.697754,370.124158 905.259913,367.631261 L877.168371,373.375521 L876.557625,370.890989 C875.760029,367.650781 875.04052,364.388264 874.309855,361.134113 C872.976811,355.124949 871.596357,348.917803 869.750174,342.992292 L868.938634,340.36276 L888.005633,335.100907 L888.75303,337.599381 C889.977311,341.681709 891.059364,345.750094 891.968512,349.715307 L900.811784,347.596065 C899.425752,341.506035 897.632556,335.42437 895.895136,329.521167 C895.259291,327.335003 894.61229,325.157203 893.9876,322.962673 L866.626722,331.520504 L865.778928,329.091742 C864.788906,326.267017 863.843504,323.428349 862.889736,320.581315 C860.81766,314.363015 858.670287,307.921637 856.096229,301.814875 L855.036486,299.288517 L873.484372,292.105404 L874.468817,294.562051 C875.983133,298.357166 877.544859,302.261031 878.911369,306.229032 L887.464606,303.236998 C884.904491,295.867057 881.903747,288.538944 878.992244,281.422755 L878.091463,279.214282 L851.675987,290.5578 L848.282022,283.062378 C845.178092,276.144171 841.957033,268.994519 838.320443,262.240832 L837.02923,259.845532 L854.696253,250.802506 L855.895435,253.217325 C856.587057,254.619929 857.312144,256.014166 858.034442,257.402827 C859.21968,259.700531 860.404919,261.989869 861.495338,264.323823 L869.674876,260.484092 C866.043864,252.913382 862.142338,245.286901 858.026076,237.744075 L832.851614,251.733857 L831.546458,249.433364 C826.950522,241.324478 822.008775,232.74155 816.620821,224.666125 L815.114872,222.421403 L831.761195,211.646734 L833.197425,213.936072 C834.128883,215.413964 835.077073,216.88349 836.028053,218.353017 C837.335998,220.360719 838.632788,222.37121 839.882169,224.409586 L847.626655,219.758409 L846.193214,217.466282 C842.177348,211.033269 838.005309,204.441313 833.582279,198.150512 L809.966754,214.613671 L800.060951,200.693602 L789.580655,187.367478 L804.985964,175.014532 L814.339586,186.918533 L821.6044,181.483795 C820.223946,179.729844 818.849069,177.967527 817.482559,176.202422 C813.68143,171.317013 809.771538,166.286604 805.641332,161.557349 L783.693507,180.390712 L781.958876,178.316087 C775.78727,170.92105 769.197345,164.008419 762.431726,156.989826 L760.591121,155.090875 L774.696851,141.237729 L785.135315,152.185283 L791.834003,146.036695 L790.49538,144.634092 C785.104638,138.956756 779.521468,133.148361 773.72635,127.705257 L753.842235,148.6244 L751.901233,146.705929 C746.786581,141.616961 741.197834,136.801264 735.793147,132.14451 L728.545066,125.85371 L741.164368,110.676038 L752.609587,120.580703 L758.650119,113.787976 L748.953475,105.400242 C746.357106,103.22802 743.657552,101.119933 740.955208,99.0090567 L739.00584,97.4753952 L721.28583,120.307432 L719.169134,118.564635 C714.046116,114.351249 708.471313,110.458537 703.083359,106.694095 C700.640373,104.98476 698.197388,103.275424 695.776713,101.529838 L693.687905,100.018485 L704.70086,83.6557109 L717.049649,92.3920044 L722.373461,85.0304293 L711.898743,77.62145 L701.000128,70.6279536 L685.725892,95.0856717 L683.455813,93.632876 C675.70296,88.6805436 667.470434,84.1241748 659.513999,79.7155951 L656.329194,77.9477017 L665.596363,60.6256922 L667.922219,61.7940634 C670.878343,63.2886863 673.731281,64.9506176 676.589797,66.6181259 C677.348349,67.0587051 678.095747,67.4937072 678.854299,67.9287094 L683.427925,60.02617 C675.940007,55.6538405 668.089547,51.621705 660.894453,47.9771676 L648.188698,73.8068156 L645.804278,72.6579637 C635.365814,67.6191886 627.225319,63.9579204 619.408324,60.7874238 L616.931873,59.7752072 L624.405846,41.580405 L626.815366,42.4782941 C630.301361,43.7637812 633.675804,45.2974427 637.047458,46.8366812 L638.358192,47.4306264 L642.106334,39.1126042 C635.588918,36.12057 628.800989,33.4687299 622.21943,30.8949671 L618.239818,29.3306324 L608.261506,56.2589397 L599.016647,53.0605583 C592.337481,50.7266044 585.432422,48.3089962 578.538518,46.4239868 L575.91705,45.7045601 L581.511375,26.7847543 L584.010136,27.4484114 C588.112455,28.5303399 592.145054,29.8437118 595.996381,31.1542953 L598.877208,22.5100214 C592.909184,20.4632805 586.737579,18.7455796 580.747245,17.0752828 C578.616605,16.4813375 576.485964,15.8901807 574.360902,15.2822931 L567.176963,43.0304122 L564.672625,42.4782941 C561.535229,41.7895406 558.417355,41.0422292 555.293904,40.2921293 C549.113932,38.8058719 542.730378,37.2694219 536.394233,36.2850901 L533.677946,35.8612418 L537.322902,16.431145 L539.885806,16.8466278 C543.887728,17.4963426 548.020724,18.3105774 552.184396,19.2753899 L554.161653,10.3940956 C548.338646,9.03053115 542.348313,8.00716066 536.533673,7.02004036 C533.959614,6.57946124 531.385556,6.11657431 528.814286,5.64811044 L524.502807,34.0041172 L521.962214,33.7196927 C518.624025,33.346037 515.296992,32.8998809 511.972747,32.4509364 C505.893171,31.6339131 499.601648,30.7834281 493.421676,30.4683303 L490.669134,30.3233296 L492.331256,10.6171737 L494.933203,10.7761168 C499.306035,11.0465989 503.408354,11.42862 507.399121,11.9416995 L508.470019,2.90982756 C502.596815,2.15415071 496.603692,1.7470333 490.789052,1.34828131 C488.20105,1.17539583 485.604681,0.999721881 483.022255,0.793374699 L481.580448,29.3975558 L479.025911,29.375248 C475.565015,29.3417863 472.104119,29.2274588 468.648801,29.1103428 C462.538549,28.9067841 456.207982,28.7004369 450.067053,28.9932268 L447.311723,29.1242852 L446.996589,9.35678278 L449.595747,9.25082071 C453.633923,9.07235828 457.750186,9.05283895 462.114652,9.16716645 L462.268036,0.0711595595 C456.3279,-0.11287982 450.315256,0.0962558385 444.464362,0.288660644 C441.817795,0.377891858 439.171227,0.442026793 436.521871,0.495007826 L437.946946,29.1326506 L435.392409,29.3557286 C432.129517,29.6457301 428.85826,29.8660196 425.589791,30.0890977 C419.393086,30.5101575 412.978855,30.9451596 406.765418,31.8458372 L404.051919,32.2390122 L401.762318,12.619299 L404.330799,12.2484318 C408.064997,11.7046791 411.991621,11.2864078 416.796717,10.9294829 L416.040953,1.85857232 C409.958589,2.29636296 403.823238,3.11617474 397.860792,3.91089024 C395.465216,4.23156492 393.072429,4.55223959 390.676854,4.84781799 L394.966022,33.1815169 L392.442161,33.6583462 C389.2964,34.2522915 386.136694,34.7876788 382.979777,35.3202776 C376.710563,36.3854752 370.229401,37.4841345 364.00202,39.0568347 L361.344297,39.7260688 L357.060707,20.4353957 L359.578989,19.8107772 C363.447049,18.8487532 367.479649,17.9982682 371.852481,17.2258605 L370.187569,8.28043126 C364.236279,9.32053259 358.282199,10.7426551 352.492659,12.1229504 C349.996686,12.7196842 347.497925,13.2913216 344.999164,13.8601706 L352.174736,41.6305975 L349.715018,42.366755 C346.650131,43.281375 343.560145,44.1346485 340.470159,44.9934989 C334.418472,46.6721611 328.152047,48.4065928 322.195179,50.5843922 L319.612754,51.5296853 L313.388161,32.7437263 L315.859035,31.8792989 C320.460548,30.2731371 324.250522,29.0545733 327.77556,28.0451452 L325.215445,19.3339479 C318.737072,21.193861 312.278221,23.4525261 306.009007,25.6442678 C304.327363,26.2298477 302.64293,26.8210045 300.961286,27.4037958 L310.917288,54.3181608 L308.507768,55.2857617 C306.131714,56.2366319 303.752871,57.1707711 301.371239,58.0993335 C294.86219,60.6424231 288.127247,63.2747439 281.763215,66.325336 L279.297919,67.5048611 L271.171368,49.4243864 L276.584421,46.9900473 C279.376005,45.721291 282.173168,44.4525347 285.012162,43.3036828 L281.590309,34.935468 C273.430292,38.2872155 265.577043,41.9596376 258.07797,45.5233092 L270.766992,71.3362264 L266.60332,73.4526792 C258.803057,77.4178913 250.729493,81.5197387 243.135601,86.0872615 L240.812534,87.4870761 L230.884421,70.3100674 L233.252108,68.9911185 C234.763636,68.1462105 236.264008,67.2706292 237.761592,66.3978364 C239.844822,65.1820611 241.928053,63.9690743 244.053115,62.8313763 L239.80299,54.8730674 C231.634607,59.3597244 224.548276,63.3779175 217.676683,67.6442849 L232.931397,92.0908491 L218.454757,101.370895 L204.50241,111.211425 L192.937273,95.1999992 L205.305584,86.4804365 L200.246708,78.9459759 C198.567853,80.1282894 196.886209,81.3022376 195.198987,82.4761858 C189.908641,86.1597618 184.501166,89.9994925 179.37257,94.0567243 L197.011704,116.816261 L183.622695,127.423621 L170.810966,138.530119 L157.695258,123.762353 L169.1349,113.8549 L163.331415,106.858615 L159.694825,110.006804 C154.532764,114.446057 149.21453,119.021945 144.236529,123.815334 L164.156899,144.784669 L162.160121,146.616698 C155.863019,152.386054 149.867108,158.713104 144.063624,164.828231 L140.017081,169.086233 L125.476298,155.712705 L135.914762,144.759573 L129.425233,138.376753 C123.811387,144.221397 117.726234,150.696237 112.023146,157.380213 L133.929139,176.194057 L132.091322,178.224067 C127.654348,183.117841 123.50462,188.454983 119.485964,193.610874 C117.673247,195.930886 115.868896,198.256475 114.03108,200.55139 L112.413578,202.564669 L96.6262037,190.733168 L105.977037,178.834743 L98.890706,173.143465 L90.9705254,183.234957 L83.5857936,193.58299 L107.262672,210.107495 L105.650748,212.304814 C101.397834,218.118785 97.4879417,224.367759 93.7007567,230.404808 L88.4438762,238.731196 L71.5967596,228.586722 L72.9521145,226.311326 C74.6253921,223.4866 76.4074327,220.728798 78.1922622,217.968207 L79.6089705,215.756946 L71.9816135,210.807402 L70.5425947,213.046548 C68.7187222,215.876851 66.8920608,218.704365 65.1713736,221.598802 L58.6790566,232.886551 L83.8479404,246.884698 L82.5511503,249.215863 C78.2340941,256.973402 73.9449259,265.322097 69.4465979,274.752721 L68.3031916,277.148022 L50.5385611,268.779807 L51.5453164,266.417968 C52.8448953,263.350645 54.3843107,260.403227 55.9181485,257.450231 C56.3141576,256.6834 56.7157442,255.919358 57.1117532,255.14695 L48.9768353,250.975391 C45.2510038,258.152927 41.8905047,265.642772 38.6276134,272.906751 L38.0921645,274.094641 L64.5048514,285.463255 L62.6252029,290.022413 C59.2981693,298.108992 55.856795,306.474418 53.0178007,314.84821 L52.1476963,317.402453 L33.574315,310.866267 L34.3523891,308.401254 C35.6212913,304.383061 37.1718618,300.440157 38.6833893,296.622734 L30.1859279,293.304448 C27.723421,299.48371 25.5788369,305.888838 23.5039727,312.107138 C22.8848599,313.953109 22.2573809,315.79908 21.6326905,317.64505 L49.0130896,326.225189 L48.324257,328.706933 C47.5266614,331.576274 46.6872338,334.426096 45.8533838,337.278706 C44.0155672,343.52768 42.1191859,349.980212 40.7526759,356.410436 L40.1753951,359.087372 L20.9717459,354.458503 L21.5099835,351.915414 C22.3159456,348.170491 23.3003906,344.252683 24.5860255,339.757661 L15.8124733,337.334476 C14.1252517,343.173543 12.7810521,349.191073 11.4675291,355.035718 C10.9320803,357.419864 10.3994203,359.804011 9.84166107,362.174215 L37.9192592,367.935205 L37.5037286,370.461564 C36.9627021,373.765907 36.3435894,377.056308 35.7272655,380.352286 C34.5810704,386.459047 33.4014097,392.774944 32.7627754,399.015552 L32.4838958,401.756624 L12.8758711,399.104784 L13.1686947,396.517078 C13.6455788,392.281384 14.2507475,388.126556 14.9646793,384.119517 L5.99870019,382.599797 C4.93616891,388.486269 4.22223714,394.509376 3.51946055,400.365174 C3.21548178,402.964034 2.88361506,405.557316 2.54617075,408.145021 L31.0839202,411.014362 L30.9305364,413.568606 C30.7297431,416.942661 30.4452859,420.313928 30.1664063,423.687983 C29.6532678,429.775225 29.1261854,436.068814 29.117819,442.234133 L29.117819,444.986358 L9.35083298,444.314336 L9.37872094,441.712688 C9.41776408,437.485359 9.59903582,433.294281 9.91138097,429.203587 L0.833850003,428.590123 C0.382065052,434.431979 0.2788796,440.365855 0.172905352,446.137999 C0.12549582,448.792627 0.0836638799,451.450044 0,454.099096 L28.6465125,454.115827 L28.7496979,456.675647 C28.8751938,460.027395 28.9365473,463.384719 28.9923232,466.736467 C29.0982974,472.951979 29.2098493,479.368261 29.8038628,485.617234 L30.0687984,488.344363 L10.3575883,489.64937 L10.1121743,487.067241 C9.76078599,483.325107 9.52931592,479.29576 9.41776408,474.560929 L0.32071154,474.85093 C0.446207359,480.896345 0.950979435,487.019837 1.44459633,492.95929 C1.65096723,495.494014 1.84060536,498.02595 2.0218771,500.560674 L30.5624153,497.694121 L30.908226,500.234422 C31.3544334,503.446746 31.7337096,506.661858 32.1185635,509.879759 C32.8520168,516.084117 33.6161469,522.503187 34.8376396,528.696391 L35.3675108,531.381693 L15.8961372,534.672094 L15.3885763,532.123427 C14.6523342,528.392447 14.0276439,524.39935 13.4392079,519.728654 L4.41466406,520.944429 C5.1564838,526.961959 6.28036858,533.021317 7.37078782,538.905 C7.81699518,541.314242 8.26599133,543.723485 8.68988833,546.135517 L36.7619088,540.410776 L37.3726552,542.903673 C38.1563068,546.102055 38.864661,549.314379 39.5785928,552.529491 C40.9395252,558.650194 42.3422896,564.980034 44.2219381,571.025448 L45.0334778,573.654981 L25.9664795,578.911257 L25.2162934,576.41836 C23.9948008,572.341609 22.9127479,568.284377 22.0036004,564.305222 L13.1603283,566.430041 C14.5547263,572.50334 16.3395557,578.57664 18.0686093,584.477054 C18.7351315,586.744084 19.384921,589.016692 20.0291328,591.289299 L47.4206871,582.698006 L48.2768475,585.135134 C49.2250381,587.878994 50.142552,590.625642 51.0600659,593.37229 C53.1405077,599.621264 55.2934582,606.065431 57.8758833,612.1945 L58.9384146,614.723647 L40.4821627,621.90676 L39.5032953,619.447324 C37.9694575,615.602017 36.4216757,611.714882 35.0607433,607.774766 L26.5019284,610.7668 C29.0704095,618.122798 32.0627876,625.445335 34.9631354,632.544793 L35.7969854,634.580381 L62.1985171,623.250805 L65.6928785,630.963728 C68.802386,637.87357 72.015079,645.023221 75.651669,651.768543 L76.9428816,654.163844 L59.2925917,663.206869 L58.085043,660.79205 C57.3906328,659.389447 56.6683347,658.000786 55.9460365,656.606548 C54.7524318,654.31721 53.5671935,652.025083 52.4767743,649.696706 L44.305602,653.53086 C47.9700799,661.176859 51.9720022,668.853532 56.1189418,676.440974 L81.2459938,662.479077 L82.5455727,664.782358 C86.8263746,672.35028 91.8601513,681.114459 97.3485019,689.34325 L98.8572405,691.593549 L82.2109172,702.36543 L80.7746873,700.073303 C79.8376518,698.581469 78.878306,697.103577 77.9217489,695.625685 C76.6305364,693.626348 75.3337463,691.6298 74.0899432,689.594212 L66.3454568,694.242601 L67.586471,696.236361 C71.61907,702.702836 75.7687984,709.361715 80.2113505,715.691554 L103.882651,699.206087 L113.841441,713.234907 L124.391457,726.647474 L108.977781,738.994843 L99.6408922,727.099207 L92.3677122,732.536734 C93.7174895,734.248858 95.0589003,735.969348 96.4003112,737.698202 C100.279526,742.683996 104.314914,747.778541 108.534363,752.605392 L130.431989,733.791548 L132.169409,735.866174 C138.248984,743.160826 144.799866,750.031629 151.540386,757.013972 L153.380991,758.912923 L139.275261,772.766069 L128.828431,761.821303 L122.138109,767.97268 L123.546451,769.458938 C128.856319,775.052619 134.333514,780.810821 140.031025,786.184213 L159.979282,765.22882 L161.909129,767.152868 C167.138122,772.353375 172.843998,777.269457 178.365814,782.034962 L185.427046,788.161242 L172.807744,803.338914 L161.368103,793.434249 L155.330359,800.224187 L165.027003,808.623075 C167.573174,810.745105 170.230896,812.822519 172.88583,814.897145 L175.161488,816.687346 L192.867554,793.846944 L194.98425,795.586952 C199.990139,799.702742 205.43108,803.506223 210.690749,807.184222 C213.206243,808.932596 215.718948,810.689335 218.195399,812.487902 L220.284207,813.999256 L209.271252,830.353664 L196.914097,821.614582 L191.581919,828.976157 L202.065003,836.382348 L212.768402,843.247575 L228.067737,818.795434 L230.335028,820.253806 C237.942863,825.144792 246.035949,829.628661 253.858522,833.961951 L257.642918,836.061673 L248.375749,853.386471 L246.049893,852.212523 C243.107713,850.729054 240.254775,849.0727 237.410203,847.410769 C236.646073,846.967401 235.887521,846.521245 235.126179,846.083454 L230.549765,853.983205 C238.071148,858.383419 245.765436,862.31517 253.292396,866.132593 L265.984207,840.31131 L268.365839,841.457373 C275.995985,845.12143 285.076304,849.382221 294.555422,853.227528 L297.043028,854.234168 L289.566266,872.42897 L287.151169,871.536658 C283.715372,870.259536 280.382761,868.745394 277.044572,867.225675 L275.605553,866.581537 L271.857411,874.893982 C278.41666,877.899959 285.240843,880.565741 291.855867,883.156235 L295.506401,884.5923 L305.495869,857.66957 L314.297309,860.72295 C321.188424,863.13777 328.324953,865.636244 335.439171,867.593754 L338.055062,868.307603 L332.474681,887.221832 L329.970342,886.563752 C325.957265,885.50692 321.994386,884.224221 317.981308,882.863445 L315.108848,891.502142 C321.062928,893.551672 327.226167,895.266584 333.210923,896.931304 C335.425227,897.550345 337.633954,898.180541 339.839891,898.813525 L347.018252,871.048675 L349.517013,871.600793 C352.74365,872.3007 355.956343,873.061954 359.163459,873.831573 C365.181681,875.276004 371.409062,876.776203 377.580668,877.735439 L380.294166,878.148133 L376.64921,897.583807 L374.080729,897.168324 C370.076018,896.513033 365.951388,895.701586 361.787716,894.731197 L359.81046,903.615279 C365.639043,904.981632 371.629377,906.005003 377.446805,906.994912 C379.945567,907.415971 382.43875,907.848185 384.929145,908.299918 L389.24899,879.977373 L391.795161,880.259009 C395.147294,880.635453 398.488271,881.087186 401.832038,881.536131 C407.967389,882.369885 414.317477,883.223159 420.558803,883.54941 L423.308556,883.688834 L421.646433,903.400567 L419.047275,903.233258 C414.643766,902.962776 410.53587,902.580755 406.581357,902.073253 L405.518826,911.105125 C411.383664,911.860801 417.371209,912.270707 423.197004,912.663882 C425.863093,912.845133 428.526393,913.05148 431.189693,913.266193 L432.623134,884.625762 L435.177671,884.645281 C438.610679,884.673166 442.040898,884.79307 445.471117,884.901821 C451.536749,885.110956 457.797596,885.325669 463.907848,885.01336 L466.660389,884.882301 L466.972734,904.655381 L464.379154,904.76692 C460.35771,904.934228 456.238659,904.948171 451.849094,904.842209 L451.698499,913.941004 C457.633057,914.099947 463.64849,913.907542 469.502172,913.720714 C472.073442,913.63706 474.644712,913.553406 477.213193,913.497636 L475.793696,884.876725 L478.3566,884.653646 C481.544194,884.385953 484.728999,884.165663 487.916592,883.950951 C494.272258,883.529891 500.839873,883.086523 507.203906,882.169115 L509.914615,881.778728 L512.218161,901.387288 L509.64968,901.760943 C505.948947,902.301908 502.022323,902.711813 497.180973,903.079892 L497.939525,912.153591 C504.024678,911.713012 510.171184,910.8932 516.130842,910.095696 C518.601715,909.769445 521.072588,909.462712 523.537884,909.15598 L519.234771,880.799973 L521.755843,880.323144 C524.946226,879.712468 528.161707,879.165927 531.366034,878.622174 C537.515329,877.582073 543.868207,876.497356 549.970092,874.958117 L552.627815,874.286095 L556.903039,893.571191 L554.384756,894.204175 C550.547373,895.160622 546.506408,896.008318 542.114054,896.79188 L543.776176,905.737309 C549.735833,904.691631 555.69549,903.26672 561.493397,901.886425 C563.900128,901.30921 566.306859,900.734784 568.727534,900.185455 L561.582639,872.445701 L564.039568,871.709543 C567.149075,870.780981 570.272527,869.910977 573.395979,869.052126 C579.489498,867.356733 585.786599,865.616725 591.776933,863.422194 L594.359358,862.485267 L600.583951,881.265649 L598.115866,882.135653 C593.489254,883.744603 589.707646,884.960379 586.20213,885.96423 L588.762244,894.675427 C595.254562,892.809937 601.724568,890.548484 608.007726,888.351165 C609.750723,887.743277 611.499298,887.140967 613.242296,886.535867 L603.263984,859.613137 L605.673503,858.648325 C607.990993,857.711397 610.325215,856.802354 612.648282,855.893311 C619.146177,853.35301 625.85602,850.729054 632.208897,847.689616 L634.674193,846.510091 L642.792378,864.5822 L637.55223,866.94125 C634.707659,868.24068 631.85472,869.537321 628.951584,870.708481 L632.376225,879.079484 C640.385647,875.791872 648.23053,872.147334 655.684982,868.600393 L643.009904,842.781899 L647.597474,840.445157 C655.328016,836.50783 663.320705,832.442232 670.836511,827.924902 L673.162367,826.530664 L683.087691,843.704885 L680.720004,845.023834 C679.186166,845.87153 677.666272,846.758265 676.151956,847.647789 C674.091036,848.846833 672.032904,850.057032 669.927363,851.180787 L674.174699,859.141885 C681.149478,855.310519 688.899542,850.915882 696.473912,846.20057 L681.233142,821.793045 L695.617752,812.585499 L709.464124,802.800738 L721.029261,818.817741 L708.658162,827.534516 L713.728193,835.071765 C715.404259,833.883874 717.099847,832.704349 718.787069,831.530401 C724.004906,827.897017 729.384494,824.146518 734.44337,820.147844 L716.779136,797.338115 L730.265753,786.663831 L743.161146,775.482045 L756.276854,790.252599 L744.84279,800.154475 L750.646274,807.147972 L754.358162,803.935648 C759.5509,799.462933 764.863556,794.817333 769.869445,789.982117 L749.979752,769.068551 L751.979319,767.236523 C758.072838,761.648418 763.890267,755.522137 769.512479,749.602204 L773.952243,744.928719 L788.495814,758.305036 L778.048984,769.255379 L784.532935,775.640988 C790.121682,769.827016 796.192891,763.441408 801.831836,756.85224 L779.895167,737.982627 L781.730195,735.955405 C786.242467,730.980765 790.467493,725.559969 794.555867,720.312058 C796.340697,718.019931 798.131104,715.730593 799.943821,713.463562 L801.561323,711.450283 L817.34312,723.276207 L807.997864,735.171844 L815.086984,740.863122 L823.007164,730.771629 L830.528547,720.231192 L806.84888,703.723418 L808.452438,701.52331 C812.657942,695.756743 816.53158,689.566328 820.282511,683.585048 L825.528236,675.283757 L842.375352,685.422653 L841.019998,687.698049 C839.341142,690.539506 837.547947,693.314039 835.760328,696.082995 L834.36593,698.263583 L841.984921,703.210338 L843.387685,701.026962 C845.225502,698.179928 847.057741,695.335683 848.792372,692.418938 L855.173137,681.334748 L830.004253,667.317082 L831.30941,664.991494 C835.606945,657.295301 839.932367,648.876894 844.525514,639.253865 L845.671709,636.861353 L863.439129,645.232357 L862.432373,647.594195 C861.121639,650.686615 859.56828,653.670283 858.012132,656.651164 C857.630067,657.381744 857.25079,658.12069 856.865936,658.856848 L864.995277,663.028407 C868.687643,655.920583 872.020254,648.50045 875.255257,641.303395 L875.977555,639.697233 L849.564868,628.350926 L851.773595,622.952438 C854.955611,615.200476 858.249179,607.183609 860.9571,599.161165 L861.821627,596.606922 L880.411741,603.143108 L879.628089,605.608121 C878.356398,609.606794 876.822561,613.499506 875.288723,617.395006 L883.777818,620.710504 C886.257057,614.511723 888.401642,608.103806 890.484872,601.865987 C891.076097,600.112036 891.656166,598.349719 892.252969,596.595768 L864.883725,588.001687 L865.578135,585.50879 C866.347843,582.770507 867.151016,580.035012 867.956978,577.293941 C869.853359,570.866505 871.811094,564.215991 873.219436,557.601728 L873.796717,554.922003 L893.003155,559.545295 L892.462129,562.088385 C891.656166,565.841672 890.671721,569.753904 889.386087,574.246137 L898.162428,576.6749 C899.84686,570.830255 901.193849,564.807148 902.504583,558.956927 C903.053976,556.497491 903.625679,554.04921 904.200171,551.600928 L876.10584,545.851092 L876.518582,543.333099 C877.059608,539.989717 877.684299,536.663065 878.300622,533.333626 C879.427296,527.330038 880.584646,521.122892 881.209337,514.996611 L881.488216,512.252751 L901.096241,514.912957 L900.806206,517.500662 C900.326533,521.74751 899.721364,525.905127 898.999066,529.898224 L907.973412,531.417943 C909.030366,525.573299 909.744297,519.583653 910.43313,513.766894 C910.737109,511.21265 911.043876,508.658407 911.375743,506.104163 L882.874248,503.223668 L883.027632,500.669424 C883.228425,497.242388 883.515671,493.81814 883.805706,490.399469 C884.321633,484.284343 884.845927,477.971234 884.854293,471.77803 L884.854293,469.023017 L904.621279,469.689462 L904.593391,472.29111 C904.554348,476.518439 904.370287,480.717883 904.060731,484.797422 L913.138262,485.413675 C913.590047,479.571819 913.696021,473.637944 913.799207,467.865799 C913.846616,465.135882 913.919125,462.403176 914,459.673259 L885.331177,459.673259 L885.227992,457.119015 C885.091341,453.678036 885.027198,450.239846 884.971422,446.798867 C884.859871,440.73951 884.751108,434.482171 884.173827,428.406083 L883.908891,425.673378 L903.628468,424.362794 L903.862727,426.942134 C904.22527,430.773499 904.448374,434.805635 904.557137,439.456812 L913.651401,439.16681 C913.525905,433.126972 913.023921,427.011846 912.527516,421.069605 C912.326722,418.612958 912.125929,416.150734 911.944657,413.694087 L911.944657,413.694087 Z" id="Fill-108"></path>
            </g>
        </g>
    </g>
</svg>