<?xml version="1.0" encoding="UTF-8"?>
<svg width="246px" height="246px" viewBox="0 0 246 246" version="1.1" xmlns="http://www.w3.org/2000/svg" xmlns:xlink="http://www.w3.org/1999/xlink">
    <title>Fill 109 Copy</title>
    <g id="Page-1" stroke="none" stroke-width="1" fill="none" fill-rule="evenodd">
        <g id="Профиль" transform="translate(-470, -143)" fill="#E4DECC">
            <g id="Fill-109-Copy" transform="translate(470, 143)">
                <path d="M235.842949,123.000511 L235.842949,123.002763 L235.842949,123.002763 C235.838445,130.652698 235.069085,138.295128 233.552883,145.719911 L233.553634,145.719911 C232.031427,153.165708 229.728602,160.492924 226.713462,167.498923 L226.714963,167.499673 C223.706578,174.482406 219.968615,181.191954 215.604656,187.445193 L215.603906,187.445193 C211.251205,193.680419 206.244737,199.505117 200.722609,204.756427 C200.721859,204.757177 200.721108,204.757928 200.720358,204.757928 L200.720358,204.758678 C195.200482,210.008487 189.12967,214.717178 182.679057,218.751162 L182.679057,218.750412 C176.214182,222.794153 169.322969,226.185702 162.196821,228.830494 L162.19607,228.829744 C155.037646,231.488796 147.601501,233.410099 140.09405,234.546369 C134.436816,235.402699 128.706023,235.834242 122.992494,235.834242 C121.08298,235.834242 119.17797,235.785459 117.277464,235.689393 C109.607884,235.305133 102.014115,234.14935 94.7063221,232.257317 L94.7063221,232.258068 C87.3377311,230.351776 80.1372734,227.679965 73.3031061,224.312432 L73.3023555,224.313933 C66.4809483,220.954656 59.967285,216.882396 53.9452615,212.209729 L53.9437603,212.21123 C47.9247391,207.543065 42.3575761,202.249728 37.3953927,196.475314 L37.3961433,196.475314 C32.4242021,190.695646 28.0279673,184.396626 24.331287,177.758377 L24.331287,177.758377 C20.621096,171.102866 17.5834381,164.048834 15.3023799,156.788413 L15.3031305,156.788413 C13.0280771,149.565517 11.4886068,142.043169 10.7260023,134.427006 L10.7252517,134.427006 C9.96114603,126.846868 9.96114603,119.160158 10.7252517,111.57927 L10.7260023,111.57927 C11.4886068,103.963858 13.0273265,96.4392575 15.3023799,89.2141102 L15.3038811,89.2141102 C17.5826875,81.9589425 20.6180936,74.9049111 24.3297858,68.2478989 L24.3297858,68.2486494 C28.0264661,61.6103999 32.4211997,55.3113803 37.3953927,49.5264592 L37.3961433,49.5264592 C42.3590773,43.7527957 47.9232379,38.4609588 53.9392567,33.7972977 L53.9385061,33.7965472 C59.9695368,29.1186265 66.4832001,25.0456157 73.2986026,21.6915923 L73.2993531,21.6923428 C80.1342711,18.3255607 87.3347287,15.6529992 94.7018185,13.7459566 L94.7025691,13.7474576 C102.004357,11.8561757 109.598127,10.7011428 117.273711,10.3138803 L117.273711,10.3138803 C124.857723,9.92811881 132.538561,10.3138803 140.086544,11.4576556 L140.086544,11.4569051 C147.600751,12.5916742 155.039897,14.5144775 162.196821,17.1720289 L162.19607,17.1727794 C169.32372,19.8183226 176.214933,23.2098714 182.679057,27.2521113 L182.679057,27.2528618 C189.122164,31.2823431 195.192976,35.9887832 200.718106,41.2415936 L200.718856,41.2423441 C200.718856,41.2423441 200.719607,41.2430946 200.720358,41.2438451 C206.241734,46.4951545 211.249704,52.3206031 215.604656,58.5588315 L215.603155,58.559582 C219.971618,64.8150721 223.709581,71.5238694 226.712711,78.5013489 L226.711961,78.5013489 C229.728602,85.5065971 232.031427,92.8330631 233.551382,100.276608 L233.552133,100.276608 C235.069085,107.700641 235.838445,115.344572 235.842949,122.99826 L235.842949,122.99826 L235.842949,123.000511 Z M245.446811,111.34436 L237.770477,112.11138 L237.676652,111.426166 C237.564814,110.589349 237.465735,109.749529 237.365155,108.910461 C237.163245,107.193297 236.952328,105.419094 236.616062,103.705683 L236.474199,102.982943 L241.714103,102.097343 L241.850711,102.783308 C242.048868,103.788239 242.218502,104.862217 242.375377,106.117818 L244.803552,105.790596 C244.604644,104.170998 244.302154,102.540143 244.008672,100.956569 C243.883322,100.287866 243.765479,99.6176619 243.647635,98.9467071 L236.086892,100.492755 L235.922512,99.8240517 C235.707842,98.9519606 235.514188,98.0738654 235.317532,97.1980218 C234.958748,95.5806755 234.587203,93.9100431 234.090309,92.3152121 L233.871886,91.6074824 L239.003704,90.1912725 L239.204864,90.8637283 C239.534375,91.962473 239.825606,93.0574652 240.0703,94.1246886 L242.450436,93.554302 C242.077391,91.915191 241.594758,90.2783315 241.127137,88.6895046 C240.956002,88.1011057 240.781864,87.5149584 240.61373,86.9243081 L233.249643,89.2276193 L233.021462,88.5739262 C232.755001,87.8136609 232.500549,87.049643 232.243846,86.2833737 C231.686154,84.6097392 231.108196,82.8760641 230.415396,81.2324501 L230.13017,80.5524892 L235.095356,78.6191787 L235.360316,79.2803769 C235.767889,80.3018193 236.188222,81.3525314 236.556014,82.4205053 L238.858089,81.6152095 C238.169043,79.631615 237.361402,77.6592781 236.577781,75.7439799 L236.335339,75.149577 L229.225703,78.2026464 L228.312229,76.185279 C227.476817,74.3232669 226.60988,72.3989626 225.631104,70.5812305 L225.283578,69.9365435 L230.038598,67.5026438 L230.361354,68.1525843 C230.547501,68.5300902 230.742656,68.9053445 230.93706,69.2790979 C231.256063,69.8975171 231.575066,70.5136847 231.868548,71.1418605 L234.070043,70.10841 C233.092769,68.0707789 232.042686,66.0181375 230.934808,63.9880115 L224.159187,67.7533137 L223.807909,67.134144 C222.570928,64.9516647 221.240874,62.6415989 219.790724,60.4681257 L219.385403,59.8639661 L223.865705,56.9640005 L224.252261,57.5801682 C224.50296,57.9779378 224.758162,58.3734559 225.014115,58.7689739 C225.366144,59.3093402 225.715171,59.850457 226.051437,60.3990789 L228.135839,59.1472303 L227.750034,58.5303122 C226.669177,56.7988886 225.546287,55.024686 224.355843,53.3315384 L217.999805,57.7625418 L215.333691,54.0160023 L212.512955,50.4293212 L216.659242,47.1045676 L219.176738,50.3084893 L221.132038,48.8457478 C220.760493,48.3736778 220.39045,47.8993563 220.022658,47.4242843 C218.999597,46.1093931 217.947263,44.7554754 216.835632,43.4826126 L210.928449,48.5515484 L210.461579,47.9931699 C208.800513,46.0028208 207.026857,44.1423098 205.205913,42.2532793 L204.710521,41.7421829 L208.50703,38.0136557 L211.316507,40.9601528 L213.119436,39.3052811 L212.759151,38.9277753 C211.30825,37.3997395 209.805559,35.8364299 208.245823,34.3714369 L202.894081,40.0017532 L202.371667,39.4854032 C200.995075,38.1157248 199.490883,36.8195963 198.03623,35.5662468 L196.085434,33.8730991 L199.481876,29.7880802 L202.562318,32.4538871 L204.188106,30.6256479 L201.578288,28.3681177 C200.879484,27.7834715 200.152908,27.2160869 199.425581,26.6479518 L198.900915,26.235172 L194.131635,32.3803373 L193.561933,31.9112694 C192.18309,30.7772507 190.682651,29.7295405 189.232501,28.7163538 C188.57498,28.2562919 187.917459,27.7962301 187.265943,27.3264117 L186.703747,26.9196359 L189.667846,22.5156508 L192.991481,24.8669946 L194.424367,22.8856516 L191.605132,20.89155 L188.671807,19.0092742 L184.560798,25.591986 L183.949814,25.200971 C181.86316,23.8680675 179.647403,22.6417363 177.505956,21.455182 L176.648776,20.9793595 L179.143004,16.3171994 L179.769,16.6316626 C180.56463,17.0339353 181.332489,17.4812384 182.101849,17.9300426 C182.306011,18.048623 182.50717,18.1657024 182.711332,18.2827817 L183.942308,16.1558401 C181.92696,14.9790424 179.814036,13.8938068 177.8775,12.9128919 L174.45779,19.8648541 L173.816031,19.5556445 C171.006554,18.1994753 168.815567,17.2140573 166.711649,16.3607289 L166.045121,16.0882943 L168.056716,11.191225 L168.70523,11.4328888 C169.643473,11.7788733 170.551693,12.1916531 171.459163,12.6059339 L171.811942,12.7657922 L172.820742,10.5270248 C171.066602,9.72172892 169.239653,9.00799514 167.468249,8.3152756 L166.39715,7.89424022 L163.711521,15.1419028 L161.223299,14.2810693 C159.425624,13.6528935 157.567151,13.0022025 155.71168,12.4948586 L155.006121,12.3012273 L156.511814,7.20902577 L157.184347,7.38764684 C158.288473,7.67884422 159.373833,8.03233382 160.410405,8.38507291 L161.185769,6.05849592 C159.579496,5.50762253 157.918429,5.04530917 156.306151,4.59575445 C155.732697,4.4358961 155.159242,4.27678825 154.587289,4.11317735 L152.653756,11.5814895 L151.979722,11.4328888 C151.135302,11.2475131 150.296137,11.0463768 149.455471,10.8444899 C147.792152,10.4444688 146.07404,10.0309385 144.368689,9.76600893 L143.637609,9.65193161 L144.618637,4.42238694 L145.308434,4.53421274 C146.385537,4.70908126 147.497919,4.92822981 148.618557,5.18790582 L149.150729,2.79753559 C147.583487,2.43053683 145.971209,2.15510013 144.406218,1.88942005 C143.713419,1.77083968 143.02062,1.64625523 142.328571,1.52016977 L141.168152,9.15209281 L140.48436,9.07554092 C139.585897,8.97497276 138.690438,8.85489136 137.795728,8.73405946 C136.159431,8.51416041 134.466089,8.28525525 132.80277,8.20044777 L132.061933,8.16142132 L132.509288,2.85757628 L133.209593,2.90035528 C134.386526,2.97315463 135.490651,3.07597432 136.564753,3.21406792 L136.852981,0.783170218 C135.272228,0.579782358 133.659199,0.470208087 132.094209,0.362885342 C131.397657,0.316353802 130.698853,0.269071754 130.003802,0.213534109 L129.615744,7.91225243 L128.928199,7.90624836 C127.996711,7.89724225 127.065222,7.8664714 126.135235,7.83495003 C124.490682,7.78016289 122.786831,7.72462525 121.134021,7.80342866 L120.392433,7.83870257 L120.307616,2.51834635 L121.00717,2.48982702 C122.094032,2.44179446 123.20191,2.4365409 124.376591,2.46731176 L124.417874,0.0191523541 C122.819107,-0.0303812206 121.200824,0.0259069325 119.626076,0.0776920333 C118.913761,0.101708312 118.201446,0.118970012 117.488381,0.133229678 L117.871935,7.8409541 L117.18439,7.9009948 C116.306194,7.9790477 115.425746,8.03833789 114.546049,8.09837859 C112.878227,8.2117054 111.151858,8.32878476 109.479533,8.57119907 L108.749204,8.6770208 L108.132965,3.39644154 L108.824263,3.29662388 C109.82931,3.15027468 110.886148,3.03769837 112.179423,2.94163326 L111.976011,0.500228435 C110.338964,0.618058302 108.687655,0.838707862 107.082883,1.05260284 C106.438122,1.13891135 105.794111,1.22521985 105.14935,1.30477377 L106.303765,8.93069274 L105.624477,9.05902973 C104.777806,9.21888809 103.927381,9.36298576 103.077708,9.50633292 C101.39037,9.79302725 99.6459877,10.0887277 97.9699091,10.5120146 L97.2545921,10.6921367 L96.1016782,5.50011744 L96.7794654,5.33200349 C97.8205407,5.07307799 98.905901,4.84417283 100.082834,4.63628192 L99.6347287,2.22864999 C98.0329591,2.50858974 96.4304388,2.89134918 94.8722036,3.26285099 C94.2004211,3.42345985 93.527888,3.57731413 92.8553549,3.73041791 L94.7866357,11.2047341 L94.124611,11.4028684 C93.2997071,11.6490353 92.4680478,11.8786909 91.6363886,12.1098476 C90.0075975,12.5616539 88.3210106,13.0284703 86.7177397,13.6146176 L86.0226887,13.86904 L84.3473607,8.81286287 L85.0123879,8.58020518 C86.2508696,8.14791216 87.2709282,7.81993986 88.2196802,7.5482557 L87.530634,5.2036665 C85.7870019,5.70425581 84.0486239,6.31216786 82.3612864,6.90206771 C81.9086776,7.05967454 81.4553182,7.21878238 81.0027095,7.3756387 L83.6823336,14.6195487 L83.0338195,14.8799753 C82.3943126,15.1358987 81.754055,15.3873191 81.1130469,15.6372385 C79.3611582,16.3217025 77.5484713,17.0301827 75.8356136,17.8512392 L75.1720876,18.1687044 L72.9848538,13.302406 L74.4417587,12.6472119 C75.1931043,12.3057304 75.9459511,11.9642489 76.7100568,11.6550393 L75.7890767,9.40276272 C73.5928358,10.3048742 71.4791603,11.2932942 69.4608104,12.2524443 L72.8760176,19.1999034 L71.7553793,19.7695395 C69.6559651,20.8367629 67.4829926,21.9407612 65.4391225,23.1700944 L64.8138769,23.5468498 L62.1417587,18.9237162 L62.7790139,18.5687256 C63.1858363,18.3413214 63.5896564,18.1056617 63.9927259,17.8707525 C64.5534204,17.5435307 65.1141148,17.2170594 65.6860682,16.9108518 L64.5421615,14.7689 C62.3436688,15.9764685 60.4364069,17.0579515 58.5869409,18.2062299 L62.6926954,24.7859397 L58.7963569,27.2836327 L55.0411302,29.9321779 L51.9284128,25.6227569 L55.2573015,23.2759162 L53.8957222,21.2480416 C53.443864,21.5662573 52.9912553,21.8822215 52.5371453,22.1981857 C51.1132666,23.1896077 49.6578629,24.2230582 48.2775188,25.3150483 L53.025032,31.4407004 L49.4214255,34.2956355 L45.9731922,37.2849117 L42.443144,33.3102176 L45.5220846,30.6436601 L43.9600964,28.7606338 L42.9813206,29.6079581 C41.5919692,30.802768 40.1605846,32.0343528 38.8207726,33.3244772 L44.1822725,38.9683027 L43.6448465,39.4613869 C41.9500031,41.0141895 40.3362238,42.7170937 38.7742357,44.3629593 L37.6851224,45.5089861 L33.7715201,41.9095463 L36.5809971,38.9615481 L34.8343626,37.2436337 C33.3234149,38.8167 31.6856166,40.5593812 30.1506499,42.3583506 L36.0465735,47.4220328 L35.5519314,47.9684031 C34.3577348,49.2855459 33.2408495,50.7220196 32.1592421,52.1097102 C31.6713553,52.7341334 31.1857204,53.3600577 30.6910783,53.9777264 L30.2557332,54.5195936 L26.006615,51.3351852 L28.52336,48.1327645 L26.6160981,46.6009763 L24.4844084,49.3170673 L22.4968329,52.1022051 L28.8693843,56.5497197 L28.4355404,57.1411206 C27.290883,58.7059312 26.2385488,60.3878212 25.2192409,62.0126726 L23.8043693,64.2536916 L19.270025,61.5233409 L19.6348142,60.9109258 C20.0851712,60.1506605 20.5648014,59.4084074 21.0451822,58.6654037 L21.4264844,58.0702503 L19.3736071,56.7380974 L18.9863001,57.3407559 C18.495411,58.1025222 18.0037713,58.863538 17.5406542,59.6425661 L15.7932691,62.6806253 L22.5673888,66.448179 L22.2183621,67.0756043 C21.0564411,69.1635195 19.902026,71.4105426 18.6913163,73.9487631 L18.3835723,74.59345 L13.6022823,72.3411734 L13.8732471,71.7054925 C14.2230243,70.879933 14.6373528,70.0866452 15.05018,69.2918565 C15.1567645,69.0854666 15.2648502,68.8798272 15.3714347,68.6719363 L13.1819491,67.5491753 C12.1791542,69.4809847 11.2746873,71.4968511 10.3964911,73.4519263 L10.2523769,73.771643 L17.361262,76.831467 L16.855361,78.0585487 C15.9599011,80.235024 15.0336669,82.4865501 14.2695612,84.7403278 L14.0353756,85.4277937 L9.03641301,83.6686013 L9.24582901,83.0051516 C9.58734973,81.9236686 10.0046805,80.8624493 10.411503,79.8350028 L8.1244401,78.9418975 C7.46166473,80.6050248 6.88445719,82.3289433 6.32601452,84.0025777 C6.15938244,84.4994145 5.99049857,84.9962512 5.82236529,85.493088 L13.1917068,87.8024033 L13.0063099,88.470356 C12.7916397,89.2426295 12.5657106,90.0096494 12.3412827,90.7774198 C11.8466406,92.4593098 11.336236,94.195987 10.9684445,95.92666 L10.8130713,96.6471484 L5.64447428,95.4013039 L5.78933911,94.71684 C6.00626106,93.7089068 6.27122109,92.6544421 6.61724538,91.444622 L4.25587356,90.79243 C3.80176359,92.3639952 3.43997681,93.983593 3.08644657,95.5566592 C2.94233234,96.1983442 2.79896869,96.8400291 2.6488497,97.4779615 L10.20584,99.0285125 L10.0940013,99.7084734 C9.94838592,100.597826 9.78175383,101.483426 9.61587234,102.370528 C9.3073778,104.014142 8.98987612,105.714044 8.81798987,107.393683 L8.74293037,108.131433 L3.46549704,107.417699 L3.54430951,106.721227 C3.67266126,105.581204 3.83554037,104.462946 4.02769268,103.384465 L1.61452981,102.975438 C1.32855312,104.559762 1.13640081,106.18086 0.94725087,107.756929 C0.865436016,108.456403 0.776115213,109.154376 0.68529322,109.850848 L8.36613169,110.623122 L8.32484897,111.310588 C8.27080613,112.218703 8.19424544,113.126068 8.11918594,114.034184 C7.98107646,115.672544 7.83921401,117.366442 7.83696223,119.025817 L7.83696223,119.766569 L2.51674498,119.585697 L2.52425093,118.885472 C2.53475926,117.747701 2.58354793,116.619686 2.66761457,115.51869 L0.2244279,115.353578 C0.102831513,116.925894 0.0750594984,118.522976 0.046536889,120.076529 C0.0337767743,120.791013 0.0225178495,121.506248 0,122.219232 L7.71011167,122.223735 L7.73788369,122.912702 C7.77166046,123.814813 7.78817355,124.718426 7.80318545,125.620537 C7.83170806,127.293421 7.86173186,129.020341 8.02160859,130.702231 L8.09291512,131.436229 L2.78770977,131.787467 L2.72165741,131.092496 C2.62708244,130.085313 2.56478306,129.000828 2.53475926,127.726464 L0.0863184231,127.804517 C0.120095197,129.43162 0.255952889,131.079737 0.388808202,132.678321 C0.44435223,133.360533 0.495392689,134.041995 0.544181363,134.724208 L8.22577043,133.952685 L8.31884421,134.636398 C8.4389394,135.500984 8.54102032,136.366321 8.64460243,137.232408 C8.84200891,138.90229 9.04767194,140.629961 9.37643254,142.29684 L9.51904558,143.01958 L4.27839141,143.905181 L4.14178312,143.219216 C3.94362605,142.215035 3.77549277,141.140307 3.61711723,139.883204 L1.18819186,140.210426 C1.38785013,141.830024 1.6903399,143.46088 1.98382254,145.044453 C2.10391774,145.692892 2.22476353,146.341332 2.33885397,146.990522 L9.89434308,145.449728 L10.0587234,146.120682 C10.2696406,146.981516 10.4602917,147.846102 10.652444,148.711438 C11.0187344,150.358805 11.3962836,152.06246 11.9021847,153.689563 L12.1206078,154.397292 L6.98878989,155.812001 L6.78687984,155.141047 C6.45811924,154.043803 6.16688839,152.951813 5.92219442,151.880837 L3.54205773,152.452724 C3.91735522,154.087332 4.39773601,155.72194 4.8631049,157.310017 C5.0424971,157.92018 5.21738573,158.531845 5.39077317,159.143509 L12.7631171,156.831192 L12.9935498,157.487137 C13.2487521,158.225637 13.4956978,158.964888 13.7426436,159.704139 C14.3025874,161.386029 14.8820467,163.120455 15.5770977,164.770073 L15.8630744,165.450785 L10.8956368,167.384095 L10.6321779,166.722146 C10.2193507,165.687195 9.80277049,164.640986 9.43648014,163.580517 L7.13290413,164.385813 C7.82420211,166.365655 8.62959053,168.336491 9.41020931,170.247286 L9.63463721,170.795157 L16.7405199,167.74584 L17.6810154,169.821747 C18.5179288,171.681508 19.3826143,173.605812 20.3613901,175.421293 L20.7089156,176.06598 L15.9584,178.49988 L15.6333923,177.849939 C15.4464942,177.472433 15.2520901,177.09868 15.057686,176.723425 C14.7364313,176.107258 14.4174284,175.49034 14.1239458,174.863665 L11.9247025,175.895614 C12.9109843,177.953509 13.9880881,180.01966 15.1042229,182.061794 L21.8670837,178.303997 L22.2168609,178.923917 C23.3690242,180.960798 24.7238482,183.319646 26.2010191,185.534398 L26.607091,186.140058 L22.1267895,189.039273 L21.7402331,188.422355 C21.4880332,188.020833 21.2298285,187.623063 20.9723744,187.225294 C20.624849,186.687179 20.2758223,186.149815 19.9410569,185.601943 L17.8566547,186.853041 L18.1906694,187.389655 C19.2760298,189.130085 20.3929151,190.9223 21.5886129,192.625954 L27.9596631,188.188947 L30.6400378,191.964756 L33.4795387,195.574703 L29.3310002,198.897956 L26.8180082,195.696286 L24.8604565,197.159777 C25.2237444,197.62059 25.5847806,198.083654 25.9458168,198.548969 C26.9898944,199.890879 28.0760054,201.262058 29.2116556,202.561189 L35.1053274,197.497506 L35.5729481,198.055885 C37.2092451,200.019216 38.9723928,201.868469 40.7865808,203.747743 L41.2819735,204.258839 L37.4854641,207.987367 L34.6737353,205.04162 L32.8730579,206.697242 L33.2521084,207.097263 C34.6812412,208.602784 36.1554098,210.152584 37.6888753,211.598815 L43.0578812,205.958742 L43.577293,206.476593 C44.9846586,207.876291 46.5203759,209.199438 48.006554,210.482058 L49.9070605,212.130925 L46.5106182,216.215944 L43.4316775,213.550137 L41.8066394,215.377626 L44.4164582,217.638158 C45.1017514,218.209295 45.8170684,218.768424 46.5316348,219.326803 L47.1441203,219.808629 L51.9096479,213.661212 L52.4793495,214.12953 C53.8266675,215.237281 55.2910783,216.260975 56.7067004,217.250896 C57.3837371,217.721465 58.0600232,218.194285 58.7265515,218.678363 L59.2887472,219.085139 L56.3246476,223.486872 L52.9987612,221.134778 L51.5636236,223.116121 L54.3851101,225.109472 L57.2658937,226.957225 L61.3836578,220.376014 L61.9938915,220.76853 C64.0415146,222.084922 66.2197413,223.29174 68.3251602,224.458031 L69.3437176,225.023164 L66.8494904,229.686074 L66.2234942,229.37011 C65.4316165,228.97084 64.6637579,228.525037 63.898151,228.077734 C63.6924879,227.958403 63.4883261,227.838322 63.2834137,227.720492 L62.0516873,229.846683 C64.076042,231.030986 66.1469335,232.089203 68.1727894,233.11665 L71.5887472,226.166939 L72.2297553,226.475398 C74.2833832,227.461567 76.7273204,228.608344 79.2785928,229.643295 L79.9481235,229.914229 L77.9357784,234.811298 L77.2857631,234.571136 C76.3610301,234.227403 75.4640691,233.819876 74.5656069,233.410849 L74.1782999,233.237482 L73.1695002,235.474748 C74.9348996,236.283796 76.7716055,237.001283 78.5520168,237.698505 L79.5345457,238.085017 L82.2231769,230.838856 L84.5920547,231.660663 C86.4467749,232.310603 88.3675474,232.983059 90.2823152,233.509916 L90.9863733,233.702046 L89.4844328,238.792747 L88.8103985,238.615627 C87.7302923,238.331184 86.6636968,237.98595 85.5835907,237.619702 L84.8104778,239.944778 C86.4129981,240.496402 88.071813,240.957965 89.6825899,241.406018 C90.2785623,241.572631 90.8730335,241.742246 91.4667541,241.912612 L93.3987856,234.439797 L94.0713187,234.588397 C94.9397571,234.776775 95.8044425,234.981664 96.6676268,235.188804 C98.2874108,235.577568 99.9634894,235.981341 101.624556,236.239516 L102.354885,236.350592 L101.373857,241.581637 L100.682559,241.469812 C99.6047049,241.293442 98.494575,241.075044 97.3739367,240.813867 L96.8417648,243.204988 C98.4105083,243.572737 100.022786,243.848174 101.588527,244.114604 C102.261061,244.227931 102.932093,244.34426 103.602374,244.465842 L104.765045,236.842925 L105.450339,236.918727 C106.352554,237.020045 107.251767,237.141628 108.15173,237.26246 C109.803039,237.486862 111.512144,237.716518 113.191975,237.804327 L113.932062,237.841852 L113.484707,243.147199 L112.785153,243.102168 C111.599963,243.029369 110.494337,242.926549 109.429993,242.789956 L109.144017,245.220854 C110.722518,245.424242 112.334045,245.534567 113.902038,245.640388 C114.619607,245.689172 115.336425,245.744709 116.053243,245.802498 L116.439049,238.094023 L117.126594,238.099277 C118.050577,238.106782 118.973809,238.139054 119.89704,238.168324 C121.529584,238.224612 123.21467,238.282401 124.859224,238.198344 L125.600061,238.16307 L125.684128,243.484927 L124.986074,243.514948 C123.903716,243.559978 122.795088,243.563731 121.613651,243.535212 L121.573119,245.984121 C123.170385,246.0269 124.789418,245.975115 126.364917,245.924831 C127.056966,245.902316 127.749014,245.879801 128.440312,245.864791 L128.05826,238.161569 L128.748056,238.101528 C129.605986,238.02948 130.463166,237.970189 131.321096,237.9124 C133.031702,237.799073 134.799353,237.679743 136.512211,237.432825 L137.241789,237.327754 L137.861781,242.605331 L137.170483,242.705899 C136.174443,242.851498 135.117605,242.961823 133.814573,243.06089 L134.018734,245.503045 C135.656533,245.384465 137.310844,245.163815 138.914865,244.94917 C139.579893,244.86136 140.24492,244.778804 140.908446,244.696248 L139.750278,237.064325 L140.428816,236.935988 C141.287496,236.771627 142.152932,236.624527 143.015366,236.478178 C144.670428,236.198238 146.380283,235.906291 148.022585,235.49201 L148.737902,235.311137 L149.888564,240.501655 L149.210777,240.672021 C148.177958,240.929445 147.090346,241.1576 145.908159,241.368493 L146.355514,243.776125 C147.959535,243.494684 149.563556,243.111174 151.124043,242.739672 C151.771807,242.584317 152.41957,242.429712 153.071087,242.281862 L151.148062,234.815801 L151.809337,234.617667 C152.64625,234.367748 153.486916,234.133589 154.327583,233.902432 C155.967633,233.446123 157.662476,232.977806 159.274754,232.387155 L159.969805,232.134984 L161.645133,237.18966 L160.980857,237.423819 C159.73562,237.856863 158.717813,238.184084 157.774315,238.454268 L158.463361,240.798857 C160.210746,240.296766 161.952127,239.688104 163.643217,239.096703 C164.112339,238.933092 164.582962,238.770982 165.052084,238.608122 L162.366455,231.36196 L163.014969,231.102284 C163.638714,230.850113 164.266962,230.605448 164.892207,230.360782 C166.641094,229.677068 168.447025,228.97084 170.15688,228.152785 L170.820406,227.83532 L173.005388,232.699367 L171.59502,233.334297 C170.829414,233.684034 170.061555,234.033021 169.280186,234.348234 L170.201916,236.601262 C172.357625,235.716412 174.469049,234.735497 176.475389,233.78085 L173.063935,226.83189 L174.298664,226.202963 C176.379313,225.143245 178.530518,224.049003 180.553372,222.833179 L181.179368,222.457925 L183.850735,227.080308 L183.21348,227.435299 C182.800653,227.663453 182.391579,227.902115 181.984006,228.141527 C181.429316,228.464246 180.875377,228.789967 180.308678,229.092422 L181.451834,231.235124 C183.329072,230.203925 185.414975,229.021124 187.453591,227.752013 L183.35159,221.182811 L187.223159,218.704631 L190.949863,216.071096 L194.06258,220.382018 L190.732941,222.728108 L192.097522,224.756733 C192.54863,224.437016 193.004992,224.119551 193.459102,223.803587 C194.863465,222.825674 196.311363,221.81624 197.672942,220.740011 L192.918673,214.600849 L196.548551,211.727902 L200.019302,208.718362 L203.54935,212.693807 L200.471911,215.358863 L202.033899,217.241139 L203.032941,216.376553 C204.430549,215.172737 205.860432,213.922389 207.20775,212.621007 L201.854507,206.992192 L202.392683,206.499108 C204.032733,204.995088 205.598474,203.346221 207.111674,201.752891 L208.306621,200.495038 L212.220974,204.095228 L209.409245,207.042476 L211.154378,208.761141 C212.658571,207.19633 214.292616,205.477665 215.810319,203.704213 L209.906139,198.625521 L210.400031,198.079901 C211.614493,196.740994 212.751645,195.282005 213.852017,193.869547 C214.332398,193.252629 214.81428,192.636462 215.302166,192.026298 L215.737511,191.484431 L219.985128,194.667338 L217.469885,197.869008 L219.377897,199.400796 L221.509587,196.684705 L223.533942,193.847783 L217.16064,189.404771 L217.592232,188.81262 C218.724129,187.260568 219.766705,185.594438 220.776256,183.984597 L222.188125,181.750333 L226.722469,184.479182 L226.35768,185.091597 C225.905822,185.856366 225.423189,186.603122 224.942058,187.348377 L224.56676,187.935275 L226.617386,189.266677 L226.994935,188.679029 C227.489577,187.91276 227.982718,187.147241 228.449588,186.362209 L230.166949,183.378937 L223.39283,179.606129 L223.744108,178.980205 C224.900775,176.908801 226.064948,174.643015 227.301178,172.05301 L227.609672,171.409073 L232.391713,173.6621 L232.120748,174.297781 C231.767969,175.130095 231.349887,175.93314 230.931055,176.735434 C230.828224,176.932067 230.726143,177.130952 230.622561,177.329086 L232.810545,178.451847 C233.804333,176.5388 234.701294,174.541697 235.571984,172.604634 L235.766388,172.172341 L228.657503,169.118521 L229.251974,167.665536 C230.108403,165.579122 230.994856,163.421409 231.723683,161.262196 L231.956368,160.57473 L236.959834,162.333922 L236.748917,162.997372 C236.406646,164.073601 235.993818,165.121311 235.580991,166.169772 L237.865802,167.062127 C238.533081,165.393746 239.110289,163.669077 239.670983,161.990189 C239.830109,161.518119 239.986233,161.043797 240.14686,160.571728 L232.780521,158.25866 L232.967419,157.587705 C233.174584,156.850705 233.390755,156.114456 233.607677,155.376706 C234.118081,153.646784 234.644999,151.85682 235.02405,150.076614 L235.179423,149.355375 L240.34877,150.599718 L240.203155,151.284182 C239.986233,152.294367 239.721273,153.347331 239.375249,154.5564 L241.737371,155.210093 C242.19073,153.637027 242.553268,152.015928 242.906047,150.441361 C243.053915,149.779412 243.207787,149.120466 243.362409,148.461519 L235.800915,146.91397 L235.912003,146.236261 C236.057619,145.336401 236.225752,144.441044 236.391634,143.544936 C236.694874,141.929091 237.006371,140.258459 237.174504,138.609591 L237.249564,137.871091 L242.526997,138.587076 L242.448935,139.283548 C242.319833,140.426573 242.156954,141.545581 241.96255,142.62031 L244.377964,143.029337 C244.66244,141.456271 244.854592,139.844178 245.039989,138.278617 C245.121804,137.591151 245.204369,136.903685 245.29369,136.216219 L237.622609,135.440943 L237.663892,134.753477 C237.717935,133.831102 237.795246,132.909478 237.873308,131.989354 C238.012168,130.343488 238.15328,128.644337 238.155532,126.977457 L238.155532,126.235954 L243.475749,126.415326 L243.468243,127.11555 C243.457735,128.253322 243.408196,129.383588 243.324879,130.481582 L245.768066,130.647444 C245.889663,129.075129 245.918185,127.478046 245.945957,125.924493 C245.958717,125.189745 245.978233,124.454246 246,123.719498 L238.283884,123.719498 L238.256112,123.032032 C238.219332,122.105905 238.202069,121.180528 238.187057,120.2544 C238.157033,118.623544 238.12776,116.939403 237.972387,115.304044 L237.90108,114.568546 L243.208537,114.215807 L243.271587,114.910027 C243.369165,115.941226 243.429212,117.026462 243.458485,118.27831 L245.906176,118.200257 C245.872399,116.574656 245.737292,114.92879 245.603686,113.329456 C245.549643,112.668258 245.4956,112.005559 245.446811,111.34436 L245.446811,111.34436 Z" id="Fill-108"></path>
            </g>
        </g>
    </g>
</svg>