<?xml version="1.0" encoding="UTF-8"?>
<svg width="1177px" height="1177px" viewBox="0 0 1177 1177" version="1.1" xmlns="http://www.w3.org/2000/svg" xmlns:xlink="http://www.w3.org/1999/xlink">
    <title>Fill 109 Copy</title>
    <g id="Page-1" stroke="none" stroke-width="1" fill="none" fill-rule="evenodd">
        <g id="Главная-страница" transform="translate(-10, -1394)" fill="#E4DECC">
            <g id="Fill-109-Copy" transform="translate(10, 1394)">
                <path d="M1128.40305,588.502446 L1128.40305,588.513218 L1128.40305,588.513218 C1128.3815,625.114738 1124.70046,661.680349 1117.44611,697.204613 L1117.4497,697.204613 C1110.16663,732.829422 1099.14864,767.886877 1084.72254,801.407448 L1084.72972,801.411039 C1070.33595,834.820294 1052.45146,866.92248 1031.57187,896.841431 L1031.56828,896.841431 C1010.74256,926.6742 986.788842,954.542776 960.367932,979.667944 C960.364341,979.671535 960.360749,979.675125 960.357158,979.675125 L960.357158,979.678716 C933.947022,1004.7967 904.9009,1027.32569 874.0376,1046.6265 L874.0376,1046.62291 C843.106066,1065.9704 810.134695,1082.19744 776.03926,1094.85159 L776.035669,1094.848 C741.785809,1107.57038 706.207183,1116.76295 670.287386,1122.1995 C643.220049,1126.29665 615.800769,1128.36139 588.464087,1128.36139 C579.327918,1128.36139 570.213297,1128.12799 561.120223,1127.66836 C524.424715,1125.82984 488.091923,1120.29994 453.127403,1111.24741 L453.127403,1111.251 C417.87199,1102.13024 383.42102,1089.34682 350.722585,1073.23468 L350.718994,1073.24187 C318.08161,1057.16923 286.916644,1037.68528 258.103954,1015.32866 L258.096772,1015.33584 C229.298447,993.000764 202.662061,967.674509 178.920233,940.046521 L178.923824,940.046521 C155.135308,912.393396 134.101291,882.255404 116.414328,850.494348 L116.414328,850.494348 C98.6627235,818.650703 84.1288888,784.900317 73.2150455,750.162448 L73.2186367,750.162448 C62.3335235,715.604122 54.9678465,679.613046 51.3191249,643.173115 L51.3155337,643.173115 C47.6596296,606.905544 47.6596296,570.128073 51.3155337,533.856912 L51.3191249,533.856912 C54.9678465,497.420572 62.3299323,461.418724 73.2150455,426.849625 L73.222228,426.849625 C84.1252975,392.136891 98.6483585,358.386506 116.407146,326.535679 L116.407146,326.53927 C134.094108,294.778214 155.120943,264.640222 178.920233,236.961961 L178.923824,236.961961 C202.669244,209.337563 229.291264,184.01849 258.075224,161.704957 L258.071633,161.701366 C286.927418,139.319607 318.092384,119.832072 350.701037,103.78457 L350.704629,103.78816 C383.406655,87.6796138 417.857625,74.892602 453.105855,65.7682558 L453.109447,65.7754375 C488.045237,56.7264991 524.378028,51.2001831 561.102267,49.3473053 L561.102267,49.3473053 C597.388372,47.5016091 634.137749,49.3473053 670.251474,54.8197585 L670.251474,54.8161677 C706.203591,60.2455307 741.796583,69.4452847 776.03926,82.1604795 L776.035669,82.1640704 C810.138286,94.8218116 843.109657,111.048856 874.0376,130.389167 L874.0376,130.392758 C904.864987,149.672023 933.911109,172.190235 960.346384,197.322584 L960.349976,197.326175 C960.349976,197.326175 960.353567,197.329766 960.357158,197.333357 C986.774477,222.458524 1010.73537,250.330691 1031.57187,280.177824 L1031.56469,280.181415 C1052.46583,310.111138 1070.35031,342.209733 1084.71895,375.593852 L1084.71536,375.593852 C1099.14864,409.110833 1110.16663,444.164696 1117.43893,479.778733 L1117.44252,479.778733 C1124.70046,515.299407 1128.3815,551.872199 1128.40305,588.491673 L1128.40305,588.491673 L1128.40305,588.502446 Z M1174.35324,532.732976 L1137.62541,536.402824 L1137.1765,533.124379 C1136.6414,529.120583 1136.16736,525.102423 1135.68613,521.087854 C1134.72008,512.871993 1133.71094,504.383227 1132.10205,496.18532 L1131.4233,492.727332 L1156.4939,488.490131 L1157.14751,491.772167 C1158.0956,496.580313 1158.90723,501.718817 1159.6578,507.726307 L1171.27553,506.160697 C1170.32385,498.411646 1168.87657,490.608732 1167.47238,483.032041 C1166.87264,479.832595 1166.30881,476.625967 1165.74499,473.415749 L1129.57021,480.812897 L1128.78372,477.613451 C1127.75662,473.440885 1126.83008,469.239592 1125.88917,465.049072 C1124.17255,457.310793 1122.39487,449.317564 1120.01746,441.687011 L1118.9724,438.300841 L1143.52585,431.524909 L1144.48831,434.74231 C1146.06487,439.999312 1147.45828,445.23836 1148.62904,450.344547 L1160.01693,447.615502 C1158.23207,439.773089 1155.92289,431.941448 1153.68553,424.339621 C1152.86672,421.524396 1152.03355,418.719943 1151.22911,415.893946 L1115.99524,426.91426 L1114.9035,423.786631 C1113.6286,420.149101 1112.41116,416.493617 1111.18295,412.827361 C1108.51465,404.819769 1105.74937,396.524908 1102.43464,388.66095 L1101.06996,385.407641 L1124.82615,376.157615 L1126.09387,379.321153 C1128.04393,384.208298 1130.05503,389.235486 1131.81475,394.345263 L1142.82915,390.492283 C1139.53237,381.00167 1135.66817,371.56492 1131.9189,362.401074 L1130.75892,359.557122 L1096.74249,374.164694 L1092.37193,364.512493 C1088.37485,355.603598 1084.22695,346.396662 1079.54394,337.699627 L1077.88119,334.615088 L1100.63183,322.969966 L1102.17607,326.079641 C1103.0667,327.885838 1104.00043,329.681262 1104.93057,331.469505 C1106.45685,334.428364 1107.98314,337.376451 1109.38732,340.381991 L1119.92049,335.437393 C1115.24467,325.688239 1110.22049,315.867268 1104.91979,306.154022 L1072.50148,324.16931 L1070.82077,321.20686 C1064.90237,310.764672 1058.53865,299.71204 1051.60034,289.312943 L1049.66105,286.42231 L1071.09729,272.547271 L1072.94679,275.495357 C1074.14627,277.398507 1075.3673,279.290884 1076.59192,281.183262 C1078.27623,283.768672 1079.94616,286.357674 1081.55505,288.982585 L1091.52798,282.993049 L1089.68207,280.041372 C1084.51065,271.757284 1079.13813,263.268518 1073.44239,255.167564 L1043.03159,276.367934 L1030.27543,258.442418 L1016.77947,241.281752 L1036.61759,225.374293 L1048.66268,240.703626 L1058.01792,233.705062 C1056.24025,231.446418 1054.46975,229.177002 1052.71004,226.903995 C1047.81515,220.612828 1042.7802,214.134937 1037.46154,208.044858 L1009.19831,232.297449 L1006.96455,229.625858 C999.017087,220.102927 990.530936,211.201214 981.818536,202.163048 L979.448304,199.71768 L997.612904,181.878344 L1011.05499,195.976016 L1019.6812,188.058195 L1017.9574,186.251998 C1011.01549,178.94103 1003.82579,171.461293 996.363145,164.451956 L970.757451,191.390502 L968.257933,188.919998 C961.67156,182.3667 954.474672,176.165304 947.514807,170.168587 L938.181119,162.067633 L954.431577,142.522644 L969.170114,155.277338 L976.948786,146.530031 L964.46197,135.728758 C961.118506,132.931487 957.642165,130.216806 954.162232,127.498534 L951.651941,125.523567 L928.833066,154.925435 L926.107298,152.681155 C919.510151,147.255382 912.33122,142.242558 905.392903,137.394912 C902.246958,135.193722 899.101013,132.992532 895.983798,130.744661 L893.293943,128.798421 L907.475835,107.727321 L923.37794,118.97745 L930.233658,109.49761 L916.74488,99.956725 L902.710231,90.9508768 L883.040892,122.44621 L880.117605,120.575378 C870.133899,114.19803 859.532495,108.330584 849.286627,102.653452 L845.185406,100.376854 L857.119168,78.070503 L860.11428,79.5750685 C863.921017,81.4997634 867.594877,83.6399091 871.27592,85.7872366 C872.252743,86.3545906 873.215201,86.914763 874.192024,87.4749354 L880.081693,77.2984706 C870.439156,71.66802 860.329755,66.475653 851.064301,61.7824139 L834.702514,95.0444442 L831.631986,93.5650146 C818.189894,87.0763512 807.707003,82.361567 797.640697,78.2787722 L794.451657,76.9752942 L804.076237,53.5450073 L807.179087,54.7012605 C811.668164,56.3566417 816.01359,58.3316084 820.355425,60.3137568 L822.043318,61.0786076 L826.869973,50.3671063 C818.477195,46.5141258 809.736065,43.0992288 801.260688,39.7848755 L796.135958,37.7704095 L783.286425,72.4472341 L771.381394,68.3285308 C762.780323,65.3229906 753.88836,62.2097249 745.010762,59.7823112 L741.634976,58.8558723 L748.839046,34.4919648 L752.056816,35.3465867 C757.339562,36.739836 762.532526,38.4311256 767.492058,40.1188245 L771.201831,28.9871939 C763.516531,26.351511 755.56907,24.1395483 747.855041,21.98863 C745.111317,21.2237793 742.367593,20.4625194 739.631052,19.6797144 L730.379963,55.4122485 L727.15501,54.7012605 C723.114841,53.8143209 719.099811,52.8519735 715.077598,51.8860352 C707.119363,49.9721129 698.898966,47.9935554 690.73962,46.7259858 L687.241731,46.1801768 L691.93551,21.159144 L695.235879,21.6941804 C700.389339,22.5308482 705.711588,23.5793759 711.073342,24.8218096 L713.619546,13.3849569 C706.120992,11.6290319 698.406963,10.3111905 690.919183,9.04003009 C687.604449,8.47267601 684.289714,7.87659515 680.978571,7.27333259 L675.426481,43.7886717 L672.154842,43.4224051 C667.856102,42.9412314 663.571728,42.3666957 659.290944,41.788569 C651.461994,40.7364504 643.360109,39.6412416 635.401873,39.2354757 L631.857298,39.0487516 L633.99769,13.6722247 L637.348337,13.8769031 C642.979435,14.2252154 648.26218,14.7171617 653.401275,15.3778778 L654.78032,3.74711929 C647.217123,2.77399933 639.499503,2.24973544 632.011723,1.7362441 C628.679032,1.51361148 625.335568,1.28738802 622.01006,1.02166523 L620.153378,37.8565899 L616.863782,37.8278631 C612.407027,37.7847729 607.950272,37.6375481 603.500699,37.4867325 C595.632245,37.2246005 587.480082,36.9588777 579.572124,37.3359168 L576.023958,37.5046867 L575.618145,12.0491612 L578.965201,11.9127089 C584.165348,11.6828946 589.466049,11.6577587 595.086373,11.8049835 L595.283893,0.0916354503 C587.634506,-0.145360555 579.891747,0.123953087 572.35728,0.371721639 C568.949173,0.486628793 565.541066,0.56921831 562.129368,0.637444433 L563.964502,37.5154592 L560.674907,37.8027271 C556.473131,38.1761754 552.260582,38.4598524 548.051623,38.7471203 C540.07184,39.2893384 531.811939,39.8495108 523.810609,41.0093549 L520.316312,41.5156646 L517.367886,16.250454 L520.675438,15.7728712 C525.484137,15.0726557 530.540633,14.5340284 536.728376,14.0743998 L535.755144,2.39336938 C527.922603,2.95713261 520.021828,4.01284209 512.343711,5.03623393 C509.258818,5.44918152 506.177516,5.8621291 503.092622,6.24275905 L508.615982,42.7293714 L505.365891,43.3434065 C501.314948,44.1082572 497.246049,44.7977001 493.180741,45.4835522 C485.107585,46.8552564 476.761494,48.2700507 468.742207,50.2952893 L465.319735,51.157093 L459.803558,26.3156026 L463.046467,25.5112525 C468.027546,24.2724097 473.22051,23.1772009 478.851608,22.1825359 L476.707625,10.6630936 C469.043873,12.0024802 461.37653,13.8338129 453.921072,15.611283 C450.706893,16.3797246 447.489122,17.1158485 444.271352,17.8483816 L453.511668,53.6096425 L450.344175,54.5576266 C446.397379,55.7354249 442.418261,56.8342246 438.439144,57.9402059 C430.646107,60.1018968 422.576542,62.3354046 414.905608,65.1398573 L411.5801,66.357155 L403.564405,42.1656081 L406.746262,41.0524451 C412.671844,38.9841163 417.552368,37.4149155 422.091722,36.1150283 L418.794944,24.8972174 C410.452444,27.2923134 402.135083,30.2009007 394.061927,33.0233077 C391.896397,33.7773859 389.727275,34.5386458 387.561744,35.2891331 L400.382547,69.9480035 L397.279697,71.194028 C394.219943,72.4185073 391.156597,73.6214416 388.089659,74.8171942 C379.707655,78.0920481 371.034759,81.4818091 362.839501,85.4101975 L359.664826,86.9291264 L349.19989,63.6460643 L356.170528,60.5112535 C359.765381,58.8774174 363.367416,57.2435813 367.02332,55.7641517 L362.616843,44.9880151 C352.108812,49.3042151 341.99582,54.0333627 332.338918,58.6224671 L348.679157,91.8629524 L343.317404,94.5884064 C333.272646,99.6945931 322.875944,104.976731 313.09694,110.858541 L310.105419,112.661147 L297.320528,90.5415201 L300.369509,88.8430487 C302.315973,87.7550216 304.248072,86.6274951 306.176579,85.5035595 C308.859251,83.9379496 311.541923,82.3759304 314.278465,80.9108642 L308.805382,70.6625824 C298.286578,76.4402577 289.161183,81.6146705 280.312315,87.1086688 L299.956514,118.589638 L281.314277,130.539982 L263.347196,143.212087 L248.454235,122.593434 L264.381479,111.364851 L257.866931,101.662378 C255.704992,103.184898 253.539461,104.696645 251.366748,106.208392 C244.554125,110.951903 237.590669,115.896502 230.98634,121.121187 L253.701068,150.429693 L236.459422,164.08928 L219.961167,178.39163 L203.071465,159.374496 L217.802819,146.616211 L210.329404,137.606772 L205.6464,141.66084 C198.998975,147.377471 192.150439,153.270054 185.740038,159.442722 L211.392418,186.445904 L208.821075,188.805091 C200.712006,196.234557 192.990795,204.382192 185.51738,212.256923 L180.306459,217.740149 L161.581623,200.518439 L175.023714,186.413586 L166.666849,178.194134 C159.43764,185.720552 151.601507,194.058503 144.257378,202.665767 L172.466736,226.893222 L170.100095,229.50736 C164.386398,235.809299 159.042601,242.682183 153.867593,249.321662 C151.533273,252.309248 149.209727,255.304016 146.843086,258.259284 L144.760154,260.851877 L124.430024,245.615906 L136.471523,230.293756 L127.346128,222.964834 L117.146946,235.960115 L107.637286,249.285754 L138.127095,270.565122 L136.051346,273.394711 C130.574672,280.88163 125.539724,288.928722 120.662791,296.702909 L113.893263,307.425183 L92.198453,294.361676 L93.9438061,291.431543 C96.0985629,287.794014 98.3933789,284.242664 100.691786,280.687724 L102.516147,277.840181 L92.6940471,271.466425 L90.8409562,274.349877 C88.4922713,277.994588 86.1399951,281.635708 83.9241869,285.363009 L75.5637304,299.898764 L107.974864,317.924824 L106.304928,320.926773 C100.745655,330.916514 95.2222951,341.667515 89.4295905,353.811765 L87.9571734,356.896304 L65.0808385,346.120167 L66.3772838,343.078718 C68.0508116,339.128785 70.0331879,335.333258 72.0083816,331.530549 C72.5183408,330.543066 73.0354824,329.559173 73.5454415,328.564508 L63.0697321,323.192599 C58.2718069,332.435443 53.944337,342.080462 49.7425612,351.434623 L49.053039,352.964324 L83.0658754,367.604214 L80.6453652,373.475251 C76.3609904,383.888712 71.9293739,394.661258 68.2734698,405.444576 L67.1529963,408.733794 L43.2351956,400.316845 L44.2371575,397.142534 C45.8711814,391.968122 47.8679227,386.890662 49.8143864,381.97479 L38.871813,377.70168 C35.7007292,385.659001 32.9390492,393.90718 30.2671508,401.914772 C29.4698908,404.291914 28.661857,406.669056 27.8574144,409.046197 L63.1164185,420.095238 L62.2293769,423.291094 C61.2022762,426.986077 60.1213065,430.655924 59.0475194,434.329362 C56.6808781,442.376454 54.2388204,450.685677 52.4791023,458.966174 L51.7357112,462.413389 L27.0062855,456.45258 L27.6993989,453.177726 C28.7372734,448.355217 30.0049887,443.310074 31.6605602,437.521627 L20.3624519,434.401179 C18.1897388,441.920416 16.4587508,449.669467 14.7672667,457.195886 C14.0777446,460.266061 13.3918136,463.336237 12.6735614,466.388458 L48.8303808,473.807151 L48.2952828,477.06046 C47.5985781,481.315616 46.8013181,485.552817 46.0076494,489.7972 C44.5316409,497.661158 43.0125374,505.79443 42.1901385,513.83075 L41.8310124,517.360554 L16.5808537,513.945657 L16.9579362,510.613349 C17.5720419,505.15885 18.3513456,499.808486 19.2707085,494.648436 L7.7248032,492.691424 C6.35653262,500.271705 5.43716971,508.027938 4.53217184,515.56872 C4.14072435,518.915391 3.71336425,522.25488 3.27882163,525.587188 L40.0281992,529.282171 L39.8306798,532.571388 C39.572109,536.916315 39.2058003,541.257651 38.8466742,545.602578 C38.1858821,553.4414 37.5071337,561.545945 37.4963599,569.485312 L37.4963599,573.029479 L12.0414994,572.164085 L12.077412,568.813823 C12.1276896,563.370096 12.3611216,557.973051 12.7633429,552.705276 L1.07378715,551.915289 C0.492002807,559.438117 0.359126137,567.079443 0.222658205,574.5125 C0.161606761,577.930987 0.107737841,581.353066 0,584.764372 L36.8894367,584.785917 L37.0223134,588.082316 C37.1839202,592.398516 37.2629279,596.721898 37.3347532,601.038098 C37.4712211,609.042099 37.6148715,617.304642 38.3798102,625.351734 L38.72098,628.863583 L13.3379447,630.544101 L13.0219137,627.218975 C12.5694148,622.400056 12.2713401,617.21128 12.1276896,611.114019 L0.412995057,611.487467 C0.574601819,619.272427 1.22462013,627.15793 1.86027339,634.806438 C2.12602673,638.070519 2.3702325,641.33101 2.60366449,644.595091 L39.3566333,640.903699 L39.8019497,644.174962 C40.3765515,648.311619 40.8649631,652.451868 41.3605571,656.595707 C42.3050589,664.585345 43.2890645,672.851478 44.862037,680.826753 L45.5443766,684.28474 L20.4701898,688.521942 L19.8165802,685.239906 C18.8684872,680.435351 18.0640447,675.293255 17.3062885,669.278584 L5.68496674,670.844194 C6.64024227,678.593245 8.0875206,686.396159 9.49170379,693.97285 C10.0663056,697.075343 10.6444987,700.177836 11.1903704,703.28392 L47.3400073,695.911908 L48.1264936,699.122127 C49.135638,703.24083 50.0478184,707.377487 50.9671813,711.517736 C52.7197168,719.399648 54.5261213,727.550875 56.9466315,735.335834 L57.9916885,738.722005 L33.4382346,745.490754 L32.4721853,742.280536 C30.8992128,737.030715 29.5058034,731.80603 28.3350522,726.681889 L16.9471624,729.418116 C18.7427931,737.238984 21.0412003,745.059852 23.2677824,752.658088 C24.1260939,755.577448 24.9628578,758.503989 25.7924391,761.430531 L61.0658083,750.367127 L62.1683255,753.505528 C63.3893544,757.038923 64.5708794,760.575909 65.7524043,764.112895 C68.4314853,772.159986 71.2039391,780.458438 74.5294471,788.351123 L75.8977177,791.608022 L52.13075,800.858048 L50.8702172,797.69092 C48.8950235,792.73914 46.9018734,787.733497 45.1493379,782.659628 L34.1277568,786.512608 C37.4353085,795.985267 41.2887319,805.414835 45.0236437,814.557136 L46.0974309,817.178455 L80.0959022,802.588837 L84.5957527,812.521124 C88.6000092,821.419247 92.7371422,830.626183 97.4201471,839.312446 L99.0829011,842.396985 L76.3538079,854.042106 L74.7987917,850.932432 C73.9045676,849.126235 72.974431,847.337992 72.0442943,845.542568 C70.5072344,842.594481 68.9809483,839.642804 67.5767651,836.644445 L57.0543693,841.581862 C61.7732868,851.427969 66.9267468,861.313575 72.2669525,871.084274 L104.624217,853.104895 L106.297745,856.070936 C111.810331,865.816499 118.292558,877.102536 125.36016,887.69913 L127.303033,890.596945 L105.866794,904.468393 L104.017294,901.516715 C102.81063,899.595611 101.575236,897.692462 100.343434,895.789312 C98.6806798,893.214673 97.0107433,890.643626 95.4090407,888.022306 L85.4361079,894.008251 L87.0342192,896.575708 C92.2271831,904.902886 97.57098,913.477832 103.291859,921.629058 L133.774486,900.399961 L146.59888,918.465521 L160.184622,935.737502 L140.33572,951.63778 L128.312177,936.31922 L118.946168,943.321374 C120.684338,945.526155 122.411735,947.741709 124.139132,949.968035 C129.134576,956.388472 134.331131,962.948953 139.76471,969.164712 L167.963294,944.937256 L170.20065,947.608848 C178.0296,957.002507 186.465473,965.850358 195.145551,974.841843 L197.515784,977.287211 L179.351184,995.126547 L165.898319,981.032466 L157.282883,988.953878 L159.09647,990.8678 C165.934231,998.071043 172.987469,1005.48614 180.324416,1012.40571 L206.012708,985.420483 L208.497861,987.898169 C215.231476,994.595101 222.579197,1000.92577 229.689894,1007.06253 L238.782968,1014.95162 L222.532511,1034.49661 L207.801156,1021.74192 L200.026076,1030.48563 L212.512891,1041.30127 C215.791713,1044.0339 219.214185,1046.70909 222.633066,1049.38068 L225.563535,1051.686 L248.364454,1022.27336 L251.090221,1024.51405 C257.536535,1029.81414 264.543086,1034.71206 271.316205,1039.44839 C274.555523,1041.69985 277.791249,1043.96209 280.980289,1046.27818 L283.670144,1048.22442 L269.488253,1069.28475 L253.575374,1058.03103 L246.708882,1067.51087 L260.208434,1077.04817 L273.991695,1085.88884 L293.693354,1054.40068 L296.61305,1056.2787 C306.410011,1062.57705 316.831851,1068.35113 326.90534,1073.93131 L331.778681,1076.63522 L319.84492,1098.94516 L316.849808,1097.43341 C313.061027,1095.52308 309.387167,1093.39012 305.72408,1091.24997 C304.740074,1090.67903 303.763251,1090.10449 302.782837,1089.54073 L296.889577,1099.7136 C306.575209,1105.37996 316.483499,1110.44306 326.176314,1115.35893 L342.520144,1082.10767 L345.587081,1083.58351 C355.412772,1088.30189 367.105919,1093.7887 379.312617,1098.74048 L382.516022,1100.03678 L372.88785,1123.46707 L369.777818,1122.31799 C365.353384,1120.67339 361.061826,1118.72355 356.763087,1116.76654 L354.909996,1115.93706 L350.08334,1126.64138 C358.529987,1130.51231 367.317804,1133.94516 375.836276,1137.28106 L380.537237,1139.13035 L393.401135,1104.4607 L404.735156,1108.39268 C413.609163,1111.50236 422.799201,1114.71976 431.960508,1117.24053 L435.329111,1118.15979 L428.142997,1142.51652 L424.918045,1141.66908 C419.75022,1140.30815 414.647037,1138.65635 409.479212,1136.90402 L405.780213,1148.02847 C413.447556,1150.66774 421.384244,1152.87612 429.09109,1155.01985 C431.942552,1155.81702 434.786831,1156.62855 437.627519,1157.44367 L446.871426,1121.6896 L450.089196,1122.40058 C454.244285,1123.30189 458.381418,1124.28219 462.511369,1125.27326 C470.261311,1127.13332 478.280597,1129.0652 486.228059,1130.30045 L489.722356,1130.8319 L485.028578,1155.86011 L481.721026,1155.32507 C476.563974,1154.48122 471.252499,1153.43629 465.890746,1152.18667 L463.344541,1163.62712 C470.850278,1165.38663 478.564307,1166.70447 486.055678,1167.97922 C489.273448,1168.52144 492.484036,1169.07802 495.691033,1169.65974 L501.253896,1133.18749 L504.532718,1133.55017 C508.849414,1134.03493 513.151745,1134.61665 517.457668,1135.19478 C525.358443,1136.26844 533.535745,1137.36724 541.572988,1137.78737 L545.113971,1137.96691 L542.97358,1163.35062 L539.626524,1163.13517 C533.955922,1162.78686 528.665994,1162.29491 523.573586,1161.64138 L522.205315,1173.27214 C529.757738,1174.24526 537.468176,1174.77311 544.970321,1175.27942 C548.403567,1175.51282 551.833221,1175.77855 555.262876,1176.05504 L557.108784,1139.17344 L560.39838,1139.19857 C564.819223,1139.23448 569.236474,1139.38889 573.653726,1139.52893 C581.464719,1139.79824 589.527101,1140.07474 597.395554,1139.67257 L600.940129,1139.5038 L601.342351,1164.9665 L598.002478,1165.11014 C592.823879,1165.32559 587.519586,1165.34354 581.86694,1165.20709 L581.673012,1176.92403 C589.315216,1177.12871 597.061567,1176.88094 604.599625,1176.64035 C607.910768,1176.53263 611.221911,1176.4249 614.529462,1176.35308 L612.70151,1139.49661 L616.00188,1139.20935 C620.106691,1138.86462 624.207912,1138.58095 628.312724,1138.30445 C636.497208,1137.76223 644.954629,1137.19129 653.149887,1136.0099 L656.640593,1135.50718 L659.606975,1160.75803 L656.299423,1161.2392 C651.533819,1161.93583 646.477323,1162.46368 640.242894,1162.93767 L641.219717,1174.62229 C649.055849,1174.05494 656.970989,1172.99923 664.645515,1171.97225 C667.827372,1171.55212 671.00923,1171.15713 674.183905,1170.76213 L668.642589,1134.24679 L671.889089,1133.63276 C675.997492,1132.84636 680.138216,1132.14256 684.264576,1131.44234 C692.183307,1130.10295 700.3642,1128.70611 708.22188,1126.72397 L711.644352,1125.85857 L717.149756,1150.69288 L713.906847,1151.508 C708.965271,1152.73966 703.761534,1153.83128 698.105297,1154.84031 L700.245689,1166.35975 C707.920214,1165.01318 715.59474,1163.17826 723.060972,1161.40079 C726.160231,1160.65748 729.259489,1159.91777 732.376704,1159.21037 L723.175892,1123.48861 L726.339794,1122.54063 C730.34405,1121.34487 734.366263,1120.22453 738.388476,1119.11855 C746.235382,1116.93531 754.34445,1114.69462 762.058479,1111.86862 L765.383987,1110.6621 L773.399683,1134.84646 L770.221416,1135.96681 C764.263514,1138.03873 759.393763,1139.60434 754.879548,1140.89704 L758.176326,1152.11486 C766.536782,1149.71258 774.868509,1146.8004 782.95962,1143.97081 C785.204159,1143.18801 787.45588,1142.41238 789.700418,1141.63317 L776.850885,1106.96353 L779.953735,1105.72109 C782.938073,1104.51457 785.943959,1103.34395 788.935479,1102.17333 C797.303118,1098.90207 805.943693,1095.52308 814.124587,1091.60906 L817.299262,1090.09013 L827.753423,1113.36242 L821.005443,1116.40028 C817.342357,1118.07361 813.668496,1119.74336 809.929993,1121.25151 L814.340062,1132.03124 C824.654165,1127.79763 834.756383,1123.10439 844.355825,1118.53683 L828.033542,1085.28916 L833.941167,1082.28003 C843.896143,1077.20975 854.188698,1071.9743 863.867148,1066.15712 L866.86226,1064.3617 L879.643559,1086.47773 L876.594578,1088.17621 C874.619384,1089.26782 872.662147,1090.40971 870.712092,1091.55519 C868.05815,1093.09926 865.407799,1094.65769 862.696397,1096.1048 L868.165888,1106.35667 C877.147632,1101.42285 887.127748,1095.76367 896.881613,1089.69154 L877.25537,1058.26085 L895.779096,1046.40386 L913.609709,1033.80358 L928.50267,1054.42941 L912.571834,1065.6544 L919.100748,1075.36047 C921.259096,1073.83077 923.442583,1072.31184 925.615296,1070.80009 C932.334546,1066.12121 939.262089,1061.29152 945.776637,1056.14225 L923.029587,1026.7691 L940.396927,1013.02334 L957.00292,998.624033 L973.892622,1017.64476 L959.168451,1030.39586 L966.641866,1039.40171 L971.421834,1035.26505 C978.108763,1029.50533 984.950116,1023.52298 991.39643,1017.29645 L965.783554,990.365082 L968.358488,988.005894 C976.205395,980.809834 983.696766,972.920739 990.936749,965.297368 L996.654037,959.279105 L1015.38246,976.504406 L1001.9296,990.605668 L1010.27928,998.828712 C1017.47617,991.341792 1025.29435,983.118749 1032.55588,974.633574 L1004.30701,950.334302 L1006.67006,947.723755 C1012.48073,941.317681 1017.92149,934.337071 1023.18628,927.579094 C1025.48468,924.627417 1027.79027,921.67933 1030.12459,918.75997 L1032.20752,916.167378 L1052.53047,931.396166 L1040.49616,946.714726 L1049.62514,954.043648 L1059.82432,941.048367 L1069.50996,927.47496 L1039.01656,906.217136 L1041.08153,903.383957 C1046.49715,895.958082 1051.48542,887.986398 1056.31566,880.284028 L1063.07082,869.594072 L1084.76563,882.650397 L1083.02028,885.580529 C1080.85834,889.239604 1078.54916,892.812498 1076.24716,896.378211 L1074.45153,899.186255 L1084.26286,905.55642 L1086.06926,902.744786 C1088.4359,899.078529 1090.79536,895.415864 1093.02913,891.659836 L1101.24593,877.386213 L1068.8348,859.335017 L1070.51551,856.34025 C1076.04964,846.429507 1081.61969,835.588736 1087.5345,823.196717 L1089.01051,820.115769 L1111.89043,830.895497 L1110.59399,833.936945 C1108.90609,837.919196 1106.90576,841.761404 1104.90184,845.600021 C1104.40983,846.540824 1103.92142,847.492399 1103.42583,848.440383 L1113.89436,853.812292 C1118.64919,844.659219 1122.94074,835.103971 1127.10661,825.835991 L1128.03674,823.767662 L1094.02391,809.156499 L1096.86819,802.204616 C1100.96581,792.222057 1105.20709,781.898368 1108.69421,771.567496 L1109.8075,768.278279 L1133.74685,776.695228 L1132.7377,779.869538 C1131.10009,785.018815 1129.12489,790.03164 1127.1497,795.048055 L1138.0815,799.317574 C1141.27413,791.335118 1144.03581,783.083348 1146.71848,775.05062 C1147.47983,772.791976 1148.22681,770.52256 1148.99534,768.263916 L1113.7507,757.196921 L1114.64493,753.986702 C1115.63612,750.460489 1116.6704,746.937866 1117.70827,743.408062 C1120.15033,735.131156 1122.6714,726.566982 1124.48499,718.049489 L1125.22838,714.598684 L1149.96139,720.552311 L1149.26469,723.827165 C1148.22681,728.660447 1146.9591,733.698407 1145.30353,739.483265 L1156.60523,742.610894 C1158.77435,735.084475 1160.50893,727.328242 1162.19682,719.794642 C1162.9043,716.627513 1163.64051,713.474748 1164.38031,710.321983 L1128.20194,702.917654 L1128.73345,699.675117 C1129.43015,695.36969 1130.23459,691.085807 1131.02826,686.798334 C1132.47913,679.067237 1133.96951,671.074008 1134.77395,663.184914 L1135.13307,659.651519 L1160.38323,663.077189 L1160.00974,666.409496 C1159.39205,671.878358 1158.61274,677.232314 1157.68261,682.374409 L1169.23928,684.331421 C1170.60037,676.805003 1171.51974,669.09186 1172.40678,661.60135 C1172.79822,658.312133 1173.19326,655.022915 1173.62062,651.733698 L1136.91793,648.024351 L1137.11545,644.735134 C1137.37402,640.321981 1137.74392,635.912419 1138.11741,631.510039 C1138.7818,623.635308 1139.45695,615.505627 1139.46773,607.530352 L1139.46773,603.982594 L1164.92259,604.840807 L1164.88668,608.191068 C1164.8364,613.634795 1164.59937,619.042613 1164.20074,624.296024 L1175.8903,625.089602 C1176.47208,617.566774 1176.60855,609.925448 1176.74143,602.492392 C1176.80248,598.976951 1176.89585,595.457919 1177,591.942478 L1140.08183,591.942478 L1139.94896,588.653261 C1139.77298,584.222154 1139.69039,579.794638 1139.61856,575.363531 C1139.47491,567.560617 1139.33485,559.502752 1138.59146,551.678293 L1138.25029,548.159262 L1163.6441,546.471563 L1163.94576,549.793098 C1164.41263,554.726924 1164.69993,559.919291 1164.83999,565.908826 L1176.55109,565.535378 C1176.38949,557.7576 1175.74306,549.882869 1175.10381,542.230771 C1174.84524,539.067233 1174.58667,535.896514 1174.35324,532.732976 L1174.35324,532.732976 Z" id="Fill-108"></path>
            </g>
        </g>
    </g>
</svg>