<?xml version="1.0" encoding="UTF-8"?>
<svg width="47px" height="49px" viewBox="0 0 47 49" version="1.1" xmlns="http://www.w3.org/2000/svg" xmlns:xlink="http://www.w3.org/1999/xlink">
    <title>Group 4</title>
    <g id="Page-1" stroke="none" stroke-width="1" fill="none" fill-rule="evenodd">
        <g id="Корзина" transform="translate(-141, -141)" fill="#C8B082">
            <g id="Group-4" transform="translate(141, 141)">
                <path d="M9.81684502,5.99520433e-15 C10.6552021,5.77315973e-15 11.3348247,0.679622674 11.3348247,1.51797973 C11.3348247,2.35633678 10.6552021,3.03595946 9.81684502,3.03595946 L8.56456713,3.03595946 L8.56456713,5.90908883 L45.941018,5.90908883 C46.0150171,5.90908883 46.0887875,5.91730254 46.1609743,5.93357909 C46.6997335,6.05505759 47.0380063,6.59028595 46.9165278,7.12904509 L42.4271653,27.0394431 L8.56456713,30.0988353 L8.56943537,30.2673394 C8.65666035,31.7727411 9.90508268,32.9666181 11.4323499,32.9666181 L45.3633218,32.9666181 L45.3633218,36 L7.79346164,36 C6.68889214,36 5.79346164,35.1045695 5.79346164,34 L5.79346164,3.03595946 L1.51797973,3.03595946 C0.679622674,3.03595946 7.10542736e-15,2.35633678 7.10542736e-15,1.51797973 C6.88338275e-15,0.679622674 0.679622674,7.32747196e-15 1.51797973,7.10542736e-15 Z M43.7744228,9.01067555 L8.68708362,9.01067555 L8.68708362,26.9160386 L40.0121631,24.3350919 L43.7744228,9.01067555 Z" id="Combined-Shape"></path>
                <path d="M16.5,36 C20.0898509,36 23,38.9101491 23,42.5 C23,46.0898509 20.0898509,49 16.5,49 C12.9101491,49 10,46.0898509 10,42.5 C10,38.9101491 12.9101491,36 16.5,36 Z M16.4598765,39.3703704 C14.7092703,39.3703704 13.2901235,40.7895172 13.2901235,42.5401235 C13.2901235,44.2907297 14.7092703,45.7098765 16.4598765,45.7098765 C18.2104828,45.7098765 19.6296296,44.2907297 19.6296296,42.5401235 C19.6296296,40.7895172 18.2104828,39.3703704 16.4598765,39.3703704 Z" id="Combined-Shape"></path>
                <path d="M32.5,36 C36.0898509,36 39,38.9101491 39,42.5 C39,46.0898509 36.0898509,49 32.5,49 C28.9101491,49 26,46.0898509 26,42.5 C26,38.9101491 28.9101491,36 32.5,36 Z M32.4598765,39.3703704 C30.7092703,39.3703704 29.2901235,40.7895172 29.2901235,42.5401235 C29.2901235,44.2907297 30.7092703,45.7098765 32.4598765,45.7098765 C34.2104828,45.7098765 35.6296296,44.2907297 35.6296296,42.5401235 C35.6296296,40.7895172 34.2104828,39.3703704 32.4598765,39.3703704 Z" id="Combined-Shape-Copy"></path>
            </g>
        </g>
    </g>
</svg>