<?xml version="1.0" encoding="UTF-8"?>
<svg width="1200px" height="452px" viewBox="0 0 1200 452" version="1.1" xmlns="http://www.w3.org/2000/svg" xmlns:xlink="http://www.w3.org/1999/xlink">
    <title>Fill 111 Copy</title>
    <defs>
        <rect id="path-1" x="0" y="0" width="1200" height="452"></rect>
    </defs>
    <g id="Page-1" stroke="none" stroke-width="1" fill="none" fill-rule="evenodd">
        <g id="Оплата-доставка" transform="translate(0, -112)">
            <g id="Fill-111-Copy" transform="translate(0, 112)">
                <mask id="mask-2" fill="white">
                    <use xlink:href="#path-1"></use>
                </mask>
                <use id="Mask" fill="#0B2443" xlink:href="#path-1"></use>
                <g mask="url(#mask-2)" fill="#C7A771" id="Fill-110">
                    <g transform="translate(-637, -532)">
                        <path d="M1261.20481,616.365404 L1261.21612,619.865606 L1234.58208,620.735947 L1234.53687,617.058663 C1234.45021,610.849478 1234.23922,605.514402 1233.86245,600.544794 L1221.61358,601.362387 C1222.14859,608.645369 1222.28046,615.96226 1222.40103,623.079462 C1222.46885,626.51938 1222.5216,629.963066 1222.6384,633.402985 L1258.17556,633.402985 L1258.17556,637.317634 L1261.71345,637.457039 C1261.52507,642.234494 1261.43841,647.023253 1261.35552,651.800708 C1261.19728,660.888422 1261.02773,670.277553 1260.11594,679.568723 L1259.78061,683.038783 L1233.16918,681.249121 L1233.51205,677.564302 C1234.00939,672.217923 1234.32964,666.690694 1234.45775,661.095646 L1222.20134,660.684966 C1222.03556,668.107352 1221.41766,675.518436 1220.80728,682.718528 C1220.52471,686.147143 1220.23459,689.55692 1219.99346,692.977999 L1259.01953,696.930326 L1258.50335,700.630216 C1257.86661,705.256963 1257.31652,709.895013 1256.7589,714.540598 C1255.67379,723.68106 1254.54725,733.134242 1252.70106,742.391503 L1252.0078,745.823886 L1225.70156,741.359151 L1226.41742,737.730847 C1227.43848,732.516338 1228.30882,727.049392 1229.02092,721.431738 L1216.86625,719.781481 C1215.95823,727.117211 1214.59808,734.392657 1213.27561,741.449576 C1212.6577,744.761392 1212.03603,748.073208 1211.4671,751.385025 L1246.29593,758.51353 L1245.51225,762.341522 L1248.94841,763.181721 C1247.88968,767.548496 1246.9063,771.941645 1245.91916,776.327258 C1243.87329,785.490327 1241.74452,794.969882 1238.91496,804.170628 L1237.88637,807.516353 L1212.20557,800.402919 L1213.24546,796.883879 C1215.00876,790.919595 1216.38775,785.754066 1217.51429,780.905025 L1205.57815,778.03403 C1203.70936,786.014038 1201.39598,793.899853 1199.13534,801.563373 C1198.38556,804.114112 1197.63579,806.664851 1196.89355,809.226893 L1234.26559,820.955771 L1233.05239,824.452205 C1231.84295,827.971246 1230.66365,831.497821 1229.48058,835.024397 C1226.26672,844.654661 1222.92851,854.620251 1218.91212,864.224142 L1217.56328,867.468139 L1192.77919,857.788895 L1195.34878,851.26699 C1196.9576,847.167723 1198.58149,843.079759 1200.02829,838.923976 L1188.39733,834.832244 C1184.91972,844.718712 1180.91086,854.480846 1177.02257,863.96417 L1176.72116,864.691338 L1209.32703,878.695912 L1207.77473,882.305377 L1210.99613,883.759713 L1208.65261,888.974222 C1203.74703,899.870437 1198.68321,911.139654 1192.9073,921.907767 L1191.24196,925.019894 L1167.60703,912.884104 L1169.18194,909.704157 C1170.2256,907.59424 1171.31447,905.514465 1172.39958,903.423386 C1173.88029,900.593837 1175.36478,897.749217 1176.72116,894.859384 L1165.51595,889.584591 C1160.43329,900.122873 1155.56916,909.602429 1150.74647,918.381191 L1184.83306,937.370444 L1172.55029,958.722051 C1170.13894,962.772339 1167.60703,966.702059 1165.07512,970.624244 L1159.30674,979.662978 L1136.934,965.134692 L1142.67224,956.133635 C1144.39786,953.46233 1146.11217,950.798559 1147.78128,948.097112 L1137.21281,941.729684 L1133.91229,946.970567 C1129.41739,954.148053 1124.78686,961.547833 1119.79086,968.634894 L1148.81363,988.871259 L1146.56807,992.088882 L1149.45414,994.146052 L1137.26179,1011.21754 L1121.9573,1030.72674 L1101.14817,1014.01318 L1113.61933,998.12852 L1103.78557,990.747578 C1102.09763,992.895172 1100.40592,995.054069 1098.72929,997.201664 C1093.87269,1003.44476 1088.85409,1009.8687 1083.51899,1015.97993 L1112.97128,1041.32907 L1110.70311,1044.05313 C1101.46089,1055.10758 1091.21645,1065.74759 1082.18522,1075.14803 L1079.65331,1077.77412 L1060.64891,1059.05237 L1074.58949,1044.44497 L1065.55825,1036.12587 L1064.44301,1037.30893 C1057.58952,1044.53162 1050.5175,1051.98415 1043.09132,1058.99209 L1067.46472,1084.61628 L1064.62386,1087.32526 L1067.11432,1089.84209 C1059.5412,1097.36244 1051.36524,1104.40429 1043.44549,1111.22384 L1032.89586,1120.38314 L1015.85822,1099.82652 L1031.1175,1086.5981 L1022.96791,1077.42372 L1010.78686,1087.96577 L998.029352,1098.067 L1021.8602,1128.82658 L1019.1399,1131.04953 C1011.29927,1137.46217 1002.91609,1143.30212 994.804181,1148.95745 C991.533797,1151.23691 988.263414,1153.51261 985.011869,1155.83352 L982.001458,1157.98865 L967.103881,1135.82698 L983.606508,1124.18099 L976.425228,1114.22671 L963.407744,1123.42368 L949.836406,1132.11579 L968.622273,1162.20848 L965.306677,1164.27318 L967.205609,1167.26098 C954.741981,1175.16563 941.818691,1182.32428 930.677534,1188.42043 L927.493808,1190.16111 L914.860632,1166.48483 L918.187531,1164.84211 C922.041912,1162.93942 925.749352,1160.77298 929.460559,1158.60655 C930.496683,1157.99618 931.532807,1157.38958 932.572698,1156.79051 L926.468987,1146.21079 C917.083589,1151.67773 907.347792,1156.63981 897.894575,1161.45117 L915.116837,1196.50593 L911.823847,1198.07707 C899.669172,1203.87557 886.674295,1209.99057 873.317717,1215.33318 L869.998353,1216.65564 L859.851874,1191.86789 L863.348321,1190.57556 C868.321716,1188.73692 873.140634,1186.53281 877.959552,1184.34 L878.505872,1184.09887 L873.498568,1172.93515 C865.703148,1176.4994 857.692969,1179.63037 849.920156,1182.67091 C847.885586,1183.46966 845.839712,1184.26842 843.808909,1185.07094 L856.144435,1218.36995 L852.47844,1219.72633 L853.623828,1223.08712 C850.202735,1224.24004 846.796714,1225.43064 843.390692,1226.625 C833.69634,1230.01971 823.662894,1233.52744 813.516415,1236.2628 L810.117929,1237.18212 L802.57118,1211.56547 L806.158052,1210.61601 C810.882777,1209.36136 815.852404,1207.8392 821.925973,1205.7745 L818.07536,1194.13981 C810.814958,1196.6265 803.400079,1198.68744 796.196192,1200.68432 C793.129266,1201.53206 790.062339,1202.38356 787.006716,1203.2652 L796.783957,1241.23618 L793.140569,1242.03116 C788.705959,1243.007 784.275116,1244.05819 779.851809,1245.11692 C770.764061,1247.28335 761.378663,1249.52514 751.914142,1250.99454 L748.462908,1251.54086 L743.576171,1225.33644 L747.196953,1224.74115 C753.040692,1223.77285 758.383323,1222.72919 763.432072,1221.5612 L760.775827,1209.57235 C753.417464,1211.27912 745.938533,1212.54884 738.689434,1213.77711 C735.539618,1214.31213 732.389801,1214.84714 729.24752,1215.41607 L734.593919,1250.54619 L730.709397,1251.14148 L731.116311,1254.65299 C726.689236,1255.16916 722.269697,1255.76069 717.853925,1256.34846 C708.517507,1257.59557 698.853298,1258.88413 689.207926,1259.389 L685.719015,1259.57738 L683.514897,1233.03764 L687.162053,1232.79274 C693.642537,1232.36322 698.875904,1231.88472 703.638306,1231.28189 L702.202803,1219.08581 C694.524184,1220.04281 686.78528,1220.55522 679.264905,1221.0714 C676.164069,1221.27862 673.048162,1221.48208 669.93979,1221.73075 L671.8764,1260.88855 L668.146354,1260.93376 C663.47061,1260.99404 658.802401,1261.14475 654.141727,1261.30299 C648.290453,1261.49138 642.307309,1261.6873 636.305326,1261.6873 C632.884233,1261.6873 629.440535,1261.62325 626.008139,1261.46124 L622.53053,1261.29169 L622.978889,1234.64269 L626.656187,1234.78209 C632.481087,1234.99685 637.929215,1235.05337 643.170118,1234.92526 L642.974196,1222.6463 C635.65351,1222.87613 628.313985,1222.60862 621.189221,1222.36749 C617.768128,1222.25446 614.343268,1222.13012 610.922175,1222.06607 L609.155113,1257.56919 L605.240449,1257.37704 L604.927728,1260.90739 C600.24068,1260.4967 595.54233,1260.17645 590.851514,1259.85619 C581.699715,1259.23829 572.238962,1258.59024 562.936454,1257.21503 L559.473916,1256.69885 L562.604894,1230.21563 L566.263353,1230.73934 C571.496721,1231.49288 576.8921,1232.07311 582.664252,1232.50263 L583.689073,1220.29525 C576.202607,1219.7414 568.757586,1218.73542 561.508487,1217.75205 C558.189123,1217.31122 554.869758,1216.86287 551.550394,1216.45595 L545.642605,1255.23322 L541.965307,1254.53242 C537.428968,1253.66585 532.881326,1252.8897 528.322381,1252.10978 C519.189421,1250.55372 509.736203,1248.94491 500.527888,1246.59386 L497.140705,1245.73482 L502.946766,1219.71125 L506.518568,1220.5929 C511.977998,1221.94551 517.395984,1223.09843 522.678332,1224.03658 L524.935198,1211.97615 C517.554229,1210.67252 510.252381,1208.91677 503.153991,1207.21 C499.992871,1206.45269 496.824216,1205.69161 493.651793,1204.97198 L484.763734,1239.38623 L480.973405,1238.41039 L479.978726,1241.79756 C475.939727,1240.61827 471.885657,1239.49173 467.835354,1238.35765 C458.517775,1235.75793 448.864868,1233.06778 439.543521,1229.68815 L436.250531,1228.50132 L444.652554,1203.23883 L448.096253,1204.41812 C453.416278,1206.24546 458.645878,1208.01629 463.852871,1209.5196 L467.338015,1197.7229 C458.683555,1195.19854 450.130823,1192.19944 441.830529,1189.29077 L436.627304,1187.47097 L423.018288,1224.14585 L411.270527,1219.51533 C401.135352,1215.54794 390.649778,1211.44113 380.58619,1206.65991 L377.398696,1205.14152 L388.332629,1180.90762 L396.874057,1184.72808 C400.167047,1186.22386 403.460037,1187.72341 406.805775,1189.08732 L411.49659,1177.66362 C401.02232,1173.31192 391.034086,1168.6814 382.266595,1164.48794 L366.623008,1196.31755 L363.103955,1194.59194 L361.510208,1197.75305 C349.272643,1191.5514 336.631932,1185.14629 324.311477,1177.75781 L321.270925,1175.93801 L334.586058,1152.94368 L337.683127,1154.67683 C339.793052,1155.85235 341.876603,1157.06932 343.956386,1158.27876 C346.669146,1159.86496 349.385675,1161.43987 352.143648,1162.92811 L357.976084,1152.02436 C348.692414,1146.88521 339.156307,1141.56897 329.96683,1135.81945 L309.297101,1168.88109 L288.567088,1155.57731 L268.334415,1141.28639 L283.955395,1119.65221 L300.46179,1131.32834 L307.330349,1121.12538 C304.937845,1119.42238 302.526502,1117.73821 300.118927,1116.05028 C293.879578,1111.69104 287.466913,1107.20746 281.33306,1102.36973 L259.67242,1130.30352 L256.579119,1127.91102 L254.371233,1130.68029 L248.727184,1126.2457 C245.080028,1123.39354 241.432872,1120.54139 237.883677,1117.57997 L219.207073,1101.42403 L236.949281,1081.48531 L252.216095,1094.69867 L260.064263,1085.26433 L255.863251,1081.62472 C249.21322,1075.8865 242.371035,1069.98627 235.890551,1063.74317 L209.098272,1091.88796 L206.491008,1089.49546 C197.674536,1081.40242 189.347867,1072.62366 181.281172,1064.13878 L174.325955,1056.82189 L193.982167,1038.76703 L207.922742,1053.38951 L216.675163,1044.8029 C209.192465,1037.02635 201.905689,1029.30254 194.973078,1021.19443 L168.124283,1044.25658 L165.58107,1041.29139 L162.947432,1043.66505 C156.282329,1036.28411 150.114567,1028.35308 144.146493,1020.68203 C141.595745,1017.39658 139.048764,1014.11491 136.449035,1010.87468 L134.120582,1007.96601 L155.521249,991.964548 L168.003716,1007.85298 L177.581268,1000.17062 L167.626944,987.514884 L158.196333,974.241245 L126.238505,996.508405 L124.16249,993.637411 C117.252486,984.033521 110.922711,973.879545 104.800161,964.060895 L99.2276981,955.150263 L122.203274,941.356681 L124.041923,944.517788 C126.219667,948.24782 128.56319,951.879892 130.91425,955.508196 C131.562298,956.510406 132.210346,957.516385 132.854627,958.518595 L143.117905,951.879892 C137.08578,942.603792 131.524621,933.037579 126.61151,924.40199 L95.6295225,941.627956 L93.7230546,938.203108 L90.6222185,939.921183 C83.7649624,927.514118 77.2920141,914.877222 71.3955274,902.353357 L69.8582963,899.090521 L94.126201,887.689433 L95.5880776,891.129352 C97.3702106,895.311509 99.4726001,899.342957 101.563686,903.385709 C102.00451,904.218373 102.437798,905.054804 102.867319,905.898771 L113.744735,900.330097 C109.411854,891.980854 105.538634,883.364104 101.778447,874.99979 L99.977475,871.021089 L64.052235,886.442322 L60.1714802,876.910018 C55.7557087,866.126835 51.1967637,854.978184 47.4290406,843.690128 L46.2987237,840.318028 L71.5387009,831.478983 L72.6614824,835.013094 C74.3117451,840.208764 76.3199415,845.411971 78.3356734,850.505913 L89.7481067,846.060017 C86.7678377,838.592417 84.2246246,830.962807 81.7492305,823.532884 C80.8864219,820.955771 80.0236133,818.378658 79.1495016,815.801546 L45.2512966,826.422717 L44.075767,822.688918 L40.6546744,823.630845 C39.5130543,819.501436 38.2998475,815.387098 37.0904083,811.268992 C34.3927186,802.060711 31.5933003,792.532175 29.570033,782.913214 L28.8503979,779.488366 L54.7874039,773.275414 L55.5673225,776.884879 C56.6825686,782.103156 58.023878,787.479677 59.5686445,792.890107 L71.3955274,789.634806 C69.2931379,782.31038 67.6428752,774.865387 66.0415928,767.62385 C65.3370286,764.46651 64.6362321,761.294099 63.8939906,758.136759 L25.4707502,765.977362 L24.8528436,762.288774 C24.1143699,757.846646 23.296774,753.408284 22.4716426,748.973691 C20.7648641,739.754107 18.9940342,730.218035 17.9993553,720.674428 L17.6338861,717.193065 L44.049393,713.636348 L44.4638425,717.287258 C45.1834776,723.511513 45.9445577,728.81268 46.8073663,733.669257 L58.9130607,731.615855 C57.5905899,724.159559 56.7014072,716.620373 55.8385986,709.295947 C55.4618263,706.134839 55.0888217,702.985035 54.6856753,699.831462 L19.3218261,703.391947 L18.9337506,699.488601 L15.4033941,699.714663 C15.1095117,695.200948 14.7365071,690.683465 14.3710379,686.169749 C13.6024224,676.852205 12.8036651,667.218173 12.777291,657.644424 L12.7659879,654.144223 L39.3887195,653.27765 L39.4452353,656.94363 C39.5394284,663.24324 39.7654918,668.585851 40.1309609,673.453731 L52.3798288,672.647442 C51.8146703,665.145933 51.6903355,657.606747 51.5622329,650.282321 C51.505717,646.955434 51.4492012,643.624779 51.3550081,640.297892 L12.1179395,640.279054 L12.2686484,636.537718 C12.4570346,631.752728 12.5399245,626.967738 12.6265821,622.186515 C12.7848265,613.102568 12.954374,603.713438 13.8623953,594.422267 L14.2014904,590.952207 L40.8129188,592.741869 L40.4662883,596.426688 C39.9689488,601.773067 39.6524601,607.307832 39.5205898,612.895344 L51.7769931,613.317328 C51.9465406,605.925083 52.5644472,598.547908 53.1635152,591.374191 C53.4460944,588.028465 53.7286737,584.678972 53.9698079,581.329478 L18.6097264,577.776529 L18.9978019,573.87695 L15.4749808,573.387148 C16.1041906,568.809381 16.6580459,564.212776 17.200598,559.619939 C18.28947,550.430497 19.4273224,540.924567 21.2810421,531.618326 L21.9743032,528.18971 L48.2617074,532.650678 L47.5571432,536.271446 C46.5360902,541.512329 45.6619785,546.979275 44.961182,552.578091 L57.112089,554.217044 C58.0427166,546.738142 59.4292387,539.319523 60.7818513,532.096825 C61.3884548,528.845292 62.0063614,525.578688 62.5715198,522.315852 L24.1520471,514.430037 L25.0299266,510.797966 C26.0924246,506.427423 27.0758003,502.04181 28.0629437,497.652429 C30.1125851,488.493128 32.2338132,479.021108 35.067141,469.827898 L36.0957294,466.482172 L61.7727625,473.588071 L60.7328709,477.107112 C58.9695765,483.07893 57.5905899,488.255763 56.4640406,493.085966 L68.4039552,495.964495 C70.2049269,488.248227 72.4467221,480.614849 74.6320015,473.19623 C75.4269911,470.494782 76.2144453,467.7858 76.9905962,465.076817 L43.096159,454.44811 L44.2679209,450.71431 L40.9297182,449.565159 C42.1466928,446.031048 43.3297578,442.47433 44.5203583,438.928916 C47.7379939,429.309955 51.057358,419.366971 55.0699831,409.785687 L56.4301311,406.54169 L81.2029107,416.217166 L78.7953356,422.350997 C77.1413051,426.503012 75.4458297,430.779362 73.9651146,435.078318 L85.5847727,439.177585 C89.1942514,428.944487 93.35005,418.835724 97.3815138,409.02461 L61.4826478,393.569467 L65.2051583,385.299346 C70.1371079,374.308939 75.238605,362.953064 81.0710404,352.086991 L82.7439094,348.971096 L106.363766,361.103119 L104.807696,364.283065 C103.748966,366.430659 102.629952,368.559415 101.526009,370.688171 C100.071668,373.495114 98.6097915,376.286986 97.2684821,379.139142 L108.466155,384.417702 C113.454621,374.082876 118.262235,364.697513 123.096224,355.892377 L92.1180046,338.670179 L94.0244725,335.2491 L90.9575458,333.482044 L101.424281,315.291545 C103.813017,311.260096 106.337392,307.360518 108.850463,303.464706 L114.66406,294.346851 L137.048103,308.871369 L131.279719,317.925174 C129.561637,320.577641 127.858626,323.222572 126.19706,325.905181 L136.769291,332.27261 L140.084888,327.001585 C144.624994,319.748745 149.304506,312.277378 154.368326,305.107428 L122.429337,282.806358 L136.727846,262.777217 L152.032338,243.28309 L172.84524,259.989112 L160.362773,275.881309 L170.200299,283.254715 C171.925916,281.076979 173.632694,278.880405 175.335705,276.687598 C180.10941,270.561304 185.014986,264.246623 190.255889,258.248431 L163.437236,235.205122 L165.987984,232.2324 L163.267688,229.964239 C172.570196,218.834427 182.780726,208.22079 191.785584,198.858033 L194.317494,196.239476 L213.325657,214.946151 L199.392617,229.564862 L208.42385,237.87266 L208.992776,237.266059 C216.102469,229.772086 223.426923,222.05205 231.116846,214.79921 L204.36978,186.635585 L206.871548,184.156433 C214.489884,176.594641 222.695985,169.526419 230.645881,162.688027 L241.093777,153.619151 L258.131421,174.172004 L242.868374,187.40043 L251.014192,196.582337 L263.082209,186.13448 L275.707849,176.127445 L253.97939,148.106993 L257.076458,145.706962 L254.830895,142.956535 C262.679063,136.543894 271.07355,130.692642 279.196761,125.037311 C282.459609,122.757847 285.729993,120.485918 288.966467,118.168777 L291.976878,116.00988 L306.866919,138.182847 L290.364292,149.828836 L297.545572,159.786891 L310.713765,150.499488 L324.405671,141.713191 L303.773619,108.640241 L306.795333,106.722477 C318.075896,99.5751332 329.556148,93.1022092 343.308337,85.581862 L346.499599,83.8374127 L359.129007,107.513696 L355.802107,109.163953 C351.921352,111.074181 348.176236,113.259452 344.44619,115.440956 C343.432672,116.036254 342.419155,116.624017 341.405637,117.211779 L347.513116,127.791506 C356.804322,122.37354 366.43839,117.460448 375.804949,112.694296 L360.153827,80.8646903 L363.676649,79.1353119 L362.150721,75.9327592 C373.713863,70.4130655 387.187241,64.0757789 400.656851,58.6766519 L403.972447,57.3504184 L414.118926,82.1306405 L410.633782,83.4229647 C405.735742,85.2390005 400.992178,87.3978977 396.237312,89.556795 L395.468696,89.9034242 L400.487304,101.063378 C408.297794,97.4915902 416.334347,94.3493208 424.125998,91.3012443 C426.239691,90.476116 428.345848,89.6547554 430.459541,88.8220917 L416.876899,52.098232 L420.384649,50.9114037 C423.80951,49.7471816 427.223067,48.5528178 430.647927,47.3584541 C440.330976,43.9712837 450.338048,40.4748497 460.476991,37.7357252 L463.867942,36.8164042 L471.418459,62.4330578 L467.835354,63.3787528 C463.065417,64.6484707 458.092022,66.1743929 452.052362,68.2277943 L455.906743,79.8549443 C463.129468,77.3870949 470.499135,75.3449966 477.657809,73.3631817 C480.664452,72.5267503 483.674862,71.6940866 486.67397,70.8275135 L477.785911,36.4170271 L481.583776,35.4374227 L480.822696,31.9748982 C485.279912,30.9990615 489.706987,29.9403353 494.141597,28.8853768 C503.218042,26.7189441 512.607208,24.4771572 522.060426,23.003983 L525.507892,22.4689683 L530.394629,48.6696168 L526.766312,49.2724502 C520.96025,50.2256806 515.613851,51.2731037 510.553799,52.4448612 L513.206276,64.4224082 C520.737955,62.6854943 528.386433,61.3931701 535.805079,60.1347553 C538.890845,59.6148115 541.965307,59.0910999 545.043537,58.5372467 L539.173424,19.7750564 L542.877096,19.3455376 C547.311706,18.8368968 551.738781,18.2453665 556.165855,17.6538362 C565.498505,16.4067245 575.147644,15.1219358 584.78548,14.6057596 L588.274392,14.4173742 L590.474742,40.9684196 L586.820051,41.2057852 C580.388547,41.6315364 575.15518,42.1062677 570.355101,42.7166366 L571.7793,54.9164783 C579.243159,53.9820865 586.77107,53.4734458 594.084221,52.9761082 C597.305624,52.7613488 600.519492,52.5390539 603.729592,52.2866174 L601.954994,16.7910308 L605.873426,16.5988777 L605.831981,13.0647666 C610.50019,13.008251 615.168399,12.8537749 619.829073,12.7030666 C629.037388,12.4016498 638.547121,12.1040008 647.962661,12.5448228 L651.44027,12.710602 L650.991911,39.3596078 L647.314613,39.2126672 C641.52739,38.9866046 636.101869,38.9376244 630.811986,39.0845651 L631.007907,51.3559933 C638.415251,51.1450016 645.803756,51.4049735 652.988804,51.6423392 C656.447574,51.7591382 659.910111,51.8759372 663.368881,51.9437559 L665.350704,12.7558145 L669.073214,13.0911406 C673.760262,13.5093563 678.447309,13.8296116 683.14566,14.1460991 C692.289924,14.7715388 701.754444,15.4120493 711.053185,16.7910308 L714.515723,17.307207 L711.39228,43.7904336 L707.737589,43.2629544 C702.455241,42.5056449 697.056094,41.9254177 691.325387,41.4958988 L690.304334,53.7145792 C697.700374,54.260897 705.081344,55.2555721 712.247553,56.2201057 C715.540543,56.6646953 718.829766,57.1055173 722.130291,57.5086621 L727.465387,22.3710079 L731.338606,22.9587705 L732.005493,19.469872 C736.541832,20.336445 741.11208,21.1163608 745.667257,21.8925088 C754.803986,23.4485727 764.2459,25.0573844 773.44668,27.4046671 L776.830095,28.2637048 L771.042873,54.2872709 L767.459768,53.405627 C762.004105,52.0643226 756.582351,50.9076359 751.303771,49.9694764 L749.043137,62.0261452 C756.65017,63.3749851 764.170546,65.1834854 771.483696,66.9430055 C774.531784,67.673941 777.58364,68.4048766 780.62796,69.1094382 L790.45795,31.1573053 L794.018448,32.2084961 C798.042377,33.3915568 802.085143,34.514334 806.12791,35.6446467 C815.464328,38.244366 825.117235,40.9269748 834.446117,44.3141452 L837.73534,45.5122766 L829.337085,70.7860687 L825.893386,69.5917049 C820.848405,67.8510234 815.524612,66.042523 810.129232,64.4864592 L806.644088,76.2831561 C814.997131,78.7170962 823.252212,81.5993936 831.258624,84.4063368 L837.064685,86.4182934 L849.392675,53.134352 L853.066205,54.4982626 L854.373605,51.2090527 L862.850982,54.5472429 C872.940944,58.4958019 883.381305,62.572463 893.38461,67.3461504 L896.575872,68.8607694 L885.638171,93.0984415 L877.266291,89.3458033 C873.928088,87.8236488 870.578582,86.2977267 867.176328,84.9149775 L862.485513,96.3386712 C871.358501,100.027258 880.698686,104.235789 891.998088,109.642452 L909.231654,74.6178288 L912.475663,76.2643176 C924.11416,82.1532468 937.308726,88.8258594 949.666858,96.2407108 L952.718714,98.0642819 L939.40358,121.066145 L936.31028,119.329232 C934.20789,118.161242 932.135642,116.94804 930.059627,115.742373 C927.335563,114.156167 924.611499,112.566194 921.838455,111.066646 L916.00602,121.970396 C925.210567,127.079409 934.644946,132.342899 943.762836,138.017068 L962.511026,107.98466 L965.83039,110.060667 L967.740626,107.084177 L985.411247,118.417446 L1005.64769,132.715902 L990.011637,154.342551 L973.520313,142.677724 L966.651754,152.88068 C968.961368,154.519634 971.286053,156.143516 973.603203,157.767399 C980.004565,162.243437 986.59808,166.851345 992.893946,171.820954 L1016.76624,141.061377 L1025.07784,147.613423 C1028.78904,150.510791 1032.50402,153.415695 1036.10596,156.43363 L1054.78633,172.589566 L1037.04036,192.524515 L1021.76601,179.303624 L1013.91784,188.745502 L1018.37129,192.603636 C1024.85931,198.198684 1031.53948,203.955744 1037.88056,210.051897 L1062.24643,184.416405 L1065.08352,187.114084 L1067.48356,184.499294 C1076.33771,192.633778 1084.69829,201.44645 1092.79512,209.976543 L1099.64861,217.172867 L1079.9924,235.227729 L1066.05936,220.60525 L1057.30694,229.199394 C1064.83862,237.024926 1072.18945,244.81278 1079.21248,253.037689 L1108.69115,227.741291 L1111.04221,230.34101 C1117.6621,237.676739 1123.78465,245.555019 1129.71504,253.169559 C1132.30724,256.503981 1134.89943,259.842171 1137.54437,263.138917 L1139.86906,266.043821 L1118.46839,282.041513 L1105.98592,266.145549 L1096.4046,273.827907 L1106.2572,286.366843 L1115.59738,299.497309 L1144.68797,279.219499 L1146.92977,282.429587 L1149.80077,280.361115 C1156.63542,289.821832 1162.87854,299.836403 1168.92951,309.530718 L1174.76571,318.836959 L1151.77883,332.63431 L1149.94018,329.480737 C1147.7662,325.731867 1145.40384,322.09226 1143.04902,318.456421 C1142.40097,317.461745 1141.76422,316.474606 1141.12748,315.47993 L1130.8642,322.122401 C1136.80967,331.270399 1142.33315,340.75749 1147.52884,349.875346 L1181.62673,330.938841 L1183.37119,334.099948 C1190.23598,346.522085 1196.70893,359.162749 1202.59411,371.652704 L1204.13511,374.919308 L1179.85213,386.324163 L1178.39403,382.880477 C1176.61189,378.694552 1174.5095,374.655568 1172.41842,370.62412 C1171.98513,369.780153 1171.55561,368.943721 1171.12609,368.099755 L1160.23737,373.668428 C1164.57779,382.028975 1168.451,390.645725 1172.21119,399.017575 L1173.86899,402.694859 L1206.47863,388.682749 L1208.03094,392.284679 L1211.31639,390.943374 L1213.80309,397.039527 C1218.21886,407.834014 1222.7778,419.001503 1226.54553,430.312166 L1227.67208,433.669194 L1202.4434,442.512007 L1201.31685,438.977896 C1199.67036,433.782226 1197.66593,428.575252 1195.64643,423.49638 L1184.24153,427.938509 C1187.20673,435.379734 1189.74994,442.998042 1192.21403,450.397822 C1193.11452,453.09927 1194.01501,455.800717 1194.93433,458.494629 L1232.33275,446.795893 L1233.32743,450.390287 C1234.46905,454.508393 1235.67095,458.603893 1236.88039,462.714463 C1239.58938,471.930279 1242.39634,481.466351 1244.41207,491.107918 L1245.1204,494.528998 L1219.1947,500.745718 L1218.41855,497.136253 C1217.31084,491.914208 1215.95823,486.541455 1214.40969,481.112186 L1202.58281,484.375022 C1204.63999,491.529902 1206.26387,498.816651 1207.83878,505.896176 C1208.54711,509.121335 1209.27428,512.350262 1210.02406,515.552814 L1244.84913,508.435612 L1245.63658,512.278675 L1249.12926,511.702216 C1249.86773,516.144345 1250.68533,520.578938 1251.51046,525.017299 C1253.21724,534.233116 1254.98807,543.772955 1255.98275,553.32033 L1256.34822,556.797925 L1229.92894,560.350875 L1229.51826,556.703732 C1228.79486,550.487012 1228.03755,545.197149 1227.17474,540.329269 L1215.06904,542.38267 C1216.42542,550.072564 1217.34475,557.860419 1218.2377,565.418443 C1218.59186,568.43261 1218.9498,571.454313 1219.33411,574.476016 L1258.34511,570.565134 L1258.58248,574.295166 C1258.87259,578.816416 1259.2456,583.337667 1259.6186,587.85515 C1260.39098,597.168927 1261.17467,606.791656 1261.20481,616.365404 M1261.07671,508.774706 C1252.45993,466.689396 1239.46505,425.297345 1222.42741,385.732633 L1222.43117,385.728865 C1205.45758,346.292255 1184.35833,308.407941 1159.71365,273.112043 L1159.71365,273.108275 C1135.15187,237.902802 1106.90525,205.040844 1075.75371,175.426651 L1075.74994,175.430419 C1044.61725,145.808691 1010.36488,119.242574 973.949834,96.4743087 L973.949834,96.4743087 C937.421758,73.630689 898.493643,54.4756564 858.239289,39.5404579 L858.239289,39.5366901 C817.807852,24.5336729 775.801507,13.6751355 733.399551,7.25872705 C690.835583,0.819712346 647.559515,-1.35425575 604.769484,0.812176928 C561.489648,2.98237732 518.609191,9.50428162 477.326249,20.1970398 L477.326249,20.2008075 C435.745657,30.953849 395.058015,46.0472913 356.401175,65.0817572 C317.891277,84.0371013 281.125835,107.020126 247.129669,133.390322 L247.133437,133.394089 C213.193787,159.715304 181.778512,189.581934 153.769258,222.176384 C125.726095,254.797209 100.915638,290.353079 80.0349165,327.845551 C59.0826082,365.477429 41.9357003,405.32472 29.0726935,446.279716 L29.0764613,446.283484 C16.2247577,487.102844 7.53638818,529.613904 3.21857748,572.629838 L3.21857748,572.629838 C-1.07285916,615.344355 -1.07285916,658.665473 3.21857748,701.387526 L3.21857748,701.387526 C7.52131728,744.35448 16.2247577,786.858005 29.0689258,827.718809 L29.0764613,827.718809 C41.939468,868.681341 59.0863759,908.5324 80.0424519,946.168045 C100.94578,983.686891 125.756237,1019.24653 153.7994,1051.86359 L153.795632,1051.86359 C181.778512,1084.42036 213.182484,1114.28699 247.125902,1140.61951 L247.133437,1140.61197 C281.140906,1166.99724 317.913884,1189.98026 356.420014,1208.92807 L356.420014,1208.9243 C395.058015,1227.95123 435.734353,1243.04844 477.326249,1253.80525 L477.326249,1253.80149 C518.62803,1264.49048 561.508487,1271.01615 604.788322,1273.18258 C647.608495,1275.36032 690.865725,1273.17881 733.410854,1266.73226 C775.839184,1260.31585 817.849297,1249.45732 858.288269,1234.443 L858.288269,1234.44676 C898.546391,1219.5078 937.466971,1200.35277 973.957369,1177.51668 L973.961137,1177.51668 C1010.3272,1154.78986 1044.5758,1128.22751 1075.75371,1098.57187 L1075.74994,1098.56811 C1106.88641,1068.97652 1135.14056,1036.09572 1159.73626,1000.85634 L1159.74003,1000.86011 C1184.38471,965.552908 1205.48396,927.664826 1222.44248,888.243287 C1239.47635,848.659736 1252.4863,807.252614 1261.08425,765.178607 L1261.09178,765.178607 C1269.64451,723.266612 1274,680.130112 1274,636.997379 C1274,593.826969 1269.63698,550.690469 1261.07671,508.774706"></path>
                    </g>
                </g>
            </g>
        </g>
    </g>
</svg>