<?xml version="1.0" encoding="UTF-8"?>
<svg width="581px" height="486px" viewBox="0 0 581 486" version="1.1" xmlns="http://www.w3.org/2000/svg" xmlns:xlink="http://www.w3.org/1999/xlink">
    <title>Fill 110</title>
    <g id="Page-1" stroke="none" stroke-width="1" fill="none" fill-rule="evenodd">
        <g id="Главная-страница" transform="translate(0, -4661)" fill="#C7A771">
            <g id="Group-14" transform="translate(0, 4661)">
                <g id="Fill-111-Copy" transform="translate(-135, -230)">
                    <path d="M708.808984,346.403163 L708.815336,348.370309 L693.846758,348.859449 L693.821348,346.792781 C693.772646,343.303161 693.654066,340.304798 693.442316,337.511831 L686.558337,337.971326 C686.859022,342.06443 686.933134,346.176592 687.000894,350.176526 C687.039009,352.109793 687.068654,354.045177 687.134296,355.978443 L707.106517,355.978443 L707.106517,358.178513 L709.094846,358.25686 C708.988971,360.941835 708.940269,363.633162 708.893684,366.318137 C708.804749,371.425518 708.709462,376.702298 708.197028,381.924023 L708.008571,383.87423 L693.052697,382.868423 L693.245389,380.79752 C693.524899,377.792804 693.704886,374.68645 693.776881,371.54198 L686.888667,371.311174 C686.795497,375.482625 686.448227,379.647724 686.105193,383.694243 C685.946381,385.621157 685.783334,387.537484 685.647814,389.460163 L707.580836,391.681408 L707.290739,393.760781 C706.932883,396.361056 706.623728,398.967684 706.310339,401.578547 C705.7005,406.715572 705.067369,412.02835 704.029796,417.231017 L703.640177,419.160049 L688.85582,416.650826 L689.258144,414.611685 C689.831986,411.681082 690.321127,408.608607 690.721334,405.451432 L683.890292,404.523972 C683.379976,408.646721 682.61556,412.735591 681.872319,416.701645 C681.52505,418.562917 681.175663,420.424189 680.855921,422.285461 L700.430053,426.291748 L699.989614,428.443116 L701.92077,428.915316 C701.325754,431.369485 700.773087,433.838475 700.218303,436.303231 C699.068503,441.452962 697.872118,446.780562 696.281878,451.951467 L695.703802,453.831797 L681.27095,449.833979 L681.855379,447.856246 C682.846367,444.504262 683.62137,441.601186 684.254502,438.875979 L677.546275,437.262453 C676.495997,441.747293 675.195854,446.179195 673.925357,450.486166 C673.503975,451.919705 673.082593,453.353244 672.665447,454.793136 L693.668888,461.384876 L692.987055,463.349905 C692.307339,465.327639 691.644562,467.309608 690.979669,469.291576 C689.173445,474.703875 687.297343,480.304631 685.040093,485.702108 L684.282029,487.525265 L670.353141,482.085438 L671.797273,478.420067 C672.701444,476.11624 673.614085,473.818766 674.427203,471.483176 L667.890494,469.183584 C665.936045,474.739873 663.683029,480.226284 661.497773,485.556001 L661.328374,485.964676 L679.653183,493.835379 L678.780775,495.863933 L680.591234,496.681283 L679.274151,499.611886 C676.517172,505.735661 673.671257,512.069068 670.425136,518.120848 L669.489203,519.869894 L656.206151,513.049465 L657.091265,511.262305 C657.677811,510.076512 658.289767,508.907658 658.899606,507.732453 C659.731782,506.142219 660.566075,504.543516 661.328374,502.919402 L655.030941,499.954919 C652.174439,505.877533 649.440752,511.205133 646.730357,516.13888 L665.887342,526.811019 L658.984306,538.810823 C657.629108,541.087123 656.206151,543.295663 654.783194,545.499968 L651.541308,550.579821 L638.967617,542.414788 L642.192563,537.356109 C643.162377,535.85481 644.125837,534.357746 645.063888,532.839507 L639.124312,529.260953 L637.269386,532.206378 C634.743213,536.240193 632.140811,540.398939 629.333011,544.381934 L645.644082,555.754962 L644.382054,557.563297 L646.004056,558.719445 L639.151839,568.313783 L630.550571,579.278136 L618.855641,569.884959 L625.864553,560.95763 L620.337888,556.809471 C619.38925,558.016439 618.438495,559.22976 617.496209,560.436728 C614.766757,563.945405 611.946252,567.555722 608.947878,570.990288 L625.500343,585.236747 L624.225611,586.76769 C619.031394,592.9804 613.273922,598.960186 608.198285,604.243319 L606.775327,605.719208 L596.094678,595.19741 L603.929413,586.987909 L598.853775,582.312496 L598.226996,582.977387 C594.375271,587.036611 590.400732,591.225003 586.227147,595.16353 L599.925228,609.564566 L598.328636,611.08704 L599.728301,612.501522 C595.472134,616.728027 590.877168,620.685612 586.426192,624.518266 L580.497203,629.665879 L570.921887,618.112865 L579.497745,610.678364 L574.917602,605.522281 L568.071738,611.447013 L560.901897,617.123998 L574.295058,634.411169 L572.766226,635.660487 C568.359717,639.264452 563.648289,642.546558 559.08932,645.724908 C557.251334,647.005988 555.413347,648.28495 553.585948,649.589323 L551.894069,650.800526 L543.52149,638.345462 L552.796122,631.800307 L548.760175,626.205904 L541.444227,631.374692 L533.817007,636.259736 L544.374841,653.172113 L542.511445,654.332496 L543.578663,656.011664 C536.573986,660.454154 529.310975,664.477381 523.04954,667.903476 L521.260256,668.881756 L514.160292,655.575461 L516.030041,654.652237 C518.19624,653.582905 520.279855,652.36535 522.365589,651.147794 C522.9479,650.804761 523.530212,650.463846 524.114641,650.127165 L520.684297,644.181259 C515.409615,647.253734 509.938006,650.042465 504.625208,652.746498 L514.304282,672.447605 L512.453591,673.330598 C505.622549,676.589412 498.319306,680.026095 490.812783,683.028693 L488.947269,683.771931 L483.244852,669.840978 L485.209889,669.114679 C488.004983,668.081345 490.71326,666.842615 493.421538,665.610237 L493.728575,665.474718 L490.914423,659.200601 C486.533324,661.203744 482.031527,662.963377 477.663133,664.67219 C476.519686,665.121097 475.369885,665.570005 474.228555,666.02103 L481.161237,684.735388 L479.100913,685.497684 L479.744632,687.386483 C477.821946,688.034434 475.907729,688.70356 473.993513,689.374804 C468.545196,691.282661 462.906305,693.254042 457.203888,694.791338 L455.293907,695.308005 L451.052563,680.911205 L453.068419,680.377598 C455.723758,679.672474 458.516736,678.817009 461.930139,677.656626 L459.766058,671.117823 C455.685644,672.515365 451.518412,673.673631 447.46976,674.7959 C445.746118,675.272334 444.022476,675.750887 442.305187,676.246379 L447.800089,697.586422 L445.75247,698.033212 C443.260178,698.581642 440.770003,699.172421 438.284062,699.767435 C433.176662,700.984991 427.90198,702.244896 422.58283,703.070716 L420.643204,703.377752 L417.896812,688.650623 L419.931726,688.31606 C423.215962,687.771866 426.218571,687.185322 429.056015,686.5289 L427.563181,679.791054 C423.427711,680.750276 419.224482,681.463869 415.15042,682.15417 C413.380193,682.454854 411.609967,682.755537 409.843975,683.075278 L412.848702,702.818735 L410.665564,703.153298 L410.894253,705.126797 C408.406195,705.416893 405.922373,705.749339 403.440668,706.079667 C398.193513,706.780555 392.762136,707.504736 387.341346,707.788479 L385.380545,707.894354 L384.14181,692.978769 L386.191546,692.841132 C389.833639,692.599738 392.774841,692.330817 395.451356,691.992019 L394.64459,685.137711 C390.329133,685.675553 385.979797,685.963531 381.753275,686.253627 C380.010576,686.370089 378.259407,686.484433 376.512472,686.624187 L377.600865,708.63124 L375.504544,708.656649 C372.876732,708.690529 370.253155,708.775229 367.633812,708.864163 C364.345341,708.970038 360.982758,709.080147 357.609587,709.080147 C355.6869,709.080147 353.751509,709.04415 351.82247,708.953098 L349.868022,708.857811 L350.120004,693.880819 L352.18668,693.959166 C355.460328,694.079862 358.522227,694.111625 361.467664,694.03963 L361.357554,687.138737 C357.24326,687.267904 353.118378,687.117562 349.114193,686.982043 C347.191507,686.918518 345.266703,686.848641 343.344017,686.812644 L342.350911,706.765733 L340.150833,706.657741 L339.975081,708.641827 C337.340916,708.411021 334.700399,708.231034 332.064116,708.051048 C326.920719,707.70378 321.603687,707.339572 316.375589,706.566689 L314.429611,706.276593 L316.18925,691.39277 L318.245338,691.687101 C321.18654,692.110599 324.218794,692.436692 327.462798,692.678085 L328.038757,685.817424 C323.831292,685.506154 319.64712,684.940784 315.573058,684.38812 C313.707545,684.140374 311.842031,683.888393 309.976517,683.659704 L306.656283,705.45289 L304.589607,705.059037 C302.040142,704.572015 299.484325,704.135813 296.922155,703.697493 C291.789345,702.82297 286.476547,701.918803 281.301388,700.59749 L279.397759,700.114703 L282.66082,685.489214 L284.668206,685.984706 C287.736458,686.744884 290.781417,687.392835 293.750146,687.92009 L295.018526,681.142011 C290.870351,680.40936 286.766644,679.422611 282.777282,678.463389 C281.000703,678.037774 279.219889,677.610041 277.436958,677.205601 L272.441785,696.546736 L270.311584,695.998306 L269.752565,697.901928 C267.482609,697.239154 265.204184,696.606026 262.927876,695.968662 C257.691308,694.507595 252.266284,692.995709 247.027599,691.096322 L245.176908,690.429313 L249.898924,676.231556 L251.834315,676.89433 C254.824219,677.921312 257.763303,678.916531 260.689683,679.761409 L262.648366,673.131554 C257.784478,671.712837 252.977763,670.027317 248.312919,668.392616 L245.388657,667.369869 L237.740262,687.981497 L231.13791,685.379104 C225.441846,683.14939 219.548855,680.841328 213.893024,678.154236 L212.101622,677.300888 L218.246595,663.681205 L223.046958,665.828338 C224.89765,666.668981 226.748341,667.511741 228.628677,668.278272 L231.26496,661.858048 C225.378321,659.41235 219.76484,656.809957 214.837427,654.453193 L206.045584,672.341731 L204.067843,671.371922 L203.172142,673.148494 C196.294515,669.663109 189.190317,666.063379 182.266105,661.910985 L180.557286,660.888239 L188.040516,647.96521 L189.781098,648.939254 C190.966896,649.59991 192.137871,650.283859 193.306729,650.963573 C194.831326,651.855035 196.35804,652.740145 197.908047,653.576553 L201.185931,647.448543 C195.968421,644.560289 190.609039,641.572514 185.444466,638.341227 L173.827884,656.922184 L162.177422,649.445334 L150.806469,641.413702 L159.585607,629.255086 L168.862356,635.817181 L172.722551,630.083024 C171.377941,629.125919 170.022744,628.179402 168.669664,627.230768 C165.163091,624.780834 161.559113,622.261024 158.11183,619.542169 L145.938346,635.241225 L144.199882,633.89662 L142.959029,635.452973 L139.78702,632.96069 C137.737284,631.357752 135.687548,629.754813 133.692867,628.090468 L123.19644,619.010679 L133.167728,607.804933 L141.747821,615.230963 L146.158565,609.928774 L143.797557,607.88328 C140.060177,604.658346 136.214805,601.34236 132.572712,597.833682 L117.515198,613.651317 L116.049891,612.306713 C111.094951,607.758349 106.415285,602.824602 101.881726,598.056019 L97.9728289,593.943857 L109.019805,583.796855 L116.85454,592.014826 L121.773483,587.189071 C117.568136,582.818575 113.472899,578.477725 109.576706,573.920891 L94.4874307,586.882035 L93.058121,585.215572 L91.5779914,586.549589 C87.8321411,582.40143 84.3658004,577.944118 81.0116869,573.632913 C79.5781422,571.786463 78.146715,569.942131 76.6856428,568.121092 L75.3770303,566.486391 L87.404407,557.493419 L94.4196708,566.422866 L99.8023454,562.105308 L94.2079212,554.992666 L88.907829,547.532756 L70.947229,560.04711 L69.7804887,558.433584 C65.8970013,553.036107 62.3396082,547.329477 58.8986774,541.811304 L55.766901,536.803445 L68.6793909,529.051321 L69.7127289,530.827894 C70.9366415,532.924207 72.2537239,534.965465 73.5750413,537.004606 C73.9392506,537.567858 74.3034599,538.133227 74.6655517,538.696479 L80.4336105,534.965465 C77.0434996,529.75221 73.9180757,524.375908 71.156861,519.522626 L53.7446924,529.20378 L52.6732395,527.278984 L50.9305404,528.244558 C47.0766979,521.271671 43.4388399,514.169616 40.1249589,507.131086 L39.2610206,505.297341 L52.8998115,498.889823 L53.7213999,500.823089 C54.7229755,503.173501 55.9045382,505.439213 57.0797484,507.711278 C57.3274954,508.179243 57.5710075,508.649325 57.812402,509.123642 L63.9256126,505.993995 C61.4904923,501.301642 59.3137066,496.458947 57.2004457,491.758123 L56.1882826,489.522056 L35.9979594,498.188934 L33.8169386,492.83169 C31.3352335,486.771439 28.7730634,480.505792 26.6555676,474.161799 L26.0203188,472.266647 L40.2054237,467.29902 L40.8364375,469.285224 C41.7639007,472.20524 42.892526,475.129491 44.0253863,477.992334 L50.4392813,475.493698 C48.7643421,471.296837 47.3350324,467.008924 45.9438376,462.833238 C45.458931,461.384876 44.9740244,459.936515 44.4827654,458.488153 L25.4316549,464.457351 L24.7709962,462.358921 L22.84831,462.888293 C22.2067087,460.567526 21.524875,458.255229 20.8451589,455.940815 C19.3290318,450.765674 17.7557324,445.410547 16.6186371,440.0046 L16.2141954,438.079804 L30.791037,434.588066 L31.2293587,436.61662 C31.8561374,439.54934 32.609966,442.570996 33.4781393,445.611708 L40.1249589,443.782199 C38.9433962,439.665802 38.015933,435.481646 37.1159972,431.411834 C36.7200255,429.637379 36.3261713,427.854455 35.9090246,426.08 L14.3148015,430.486492 L13.9675322,428.413471 C13.552503,425.916953 13.0930064,423.422552 12.6292748,420.930269 C11.6700492,415.748776 10.6748261,410.389414 10.1158072,405.025817 L9.91041011,403.069258 L24.7561738,401.070349 L24.9890983,403.122195 C25.39354,406.620285 25.8212742,409.599591 26.3061807,412.329033 L33.109695,411.175002 C32.366454,406.984493 31.8667249,402.7474 31.3818184,398.631003 C31.1700688,396.854431 30.9604367,395.084211 30.7338646,393.311874 L10.8590483,395.3129 L10.6409462,393.119182 L8.65685255,393.246231 C8.49168787,390.709481 8.28205578,388.170613 8.07665867,385.633862 C7.64468951,380.397315 7.19578039,374.982898 7.18095792,369.602361 L7.17460543,367.635215 L22.1368313,367.148192 L22.1685938,369.208508 C22.2215312,372.748948 22.3485809,375.751546 22.553978,378.48734 L29.4379571,378.034198 C29.1203328,373.818279 29.0504554,369.581186 28.9784605,365.464789 C28.9466981,363.595048 28.9149357,361.723188 28.8619983,359.853446 L6.81039614,359.842859 L6.89509597,357.740193 C7.00097077,355.050984 7.04755567,352.361774 7.09625808,349.674682 C7.18519291,344.569418 7.28048022,339.292638 7.79079673,334.070913 L7.98137136,332.120707 L22.9372448,333.126513 L22.7424352,335.197417 C22.4629257,338.202132 22.2850561,341.312722 22.2109437,344.452957 L29.0991578,344.690115 C29.1944451,340.535604 29.5417144,336.389562 29.8783963,332.357865 C30.0372085,330.477536 30.1960207,328.595089 30.3315404,326.712642 L10.4588415,324.715851 L10.6769436,322.524251 L8.69708497,322.248978 C9.05070678,319.67623 9.36197868,317.092895 9.66689808,314.511677 C10.2788544,309.347124 10.9183382,304.004702 11.9601461,298.774506 L12.3497654,296.847592 L27.1235341,299.354698 L26.7275624,301.389604 C26.153721,304.33503 25.662462,307.407505 25.2686078,310.554092 L32.097532,311.475199 C32.6205535,307.271986 33.3997919,303.102652 34.159973,299.043427 C34.5008898,297.216035 34.8481591,295.380173 35.1657835,293.546429 L13.573678,289.114526 L14.0670545,287.073268 C14.6641884,284.616982 15.2168548,282.152226 15.7716387,279.685352 C16.9235565,274.537739 18.1157067,269.214375 19.7080636,264.047704 L20.2861399,262.167375 L34.7168744,266.160957 L34.1324455,268.138691 C33.1414574,271.494909 32.366454,274.404338 31.7333227,277.118957 L38.4436671,278.736718 C39.4558302,274.400103 40.7157402,270.110072 41.9438878,265.940738 C42.3906795,264.422499 42.8332361,262.900025 43.2694403,261.377552 L24.2204473,255.404118 L24.8789885,253.305688 L23.0028872,252.659854 C23.6868383,250.67365 24.351732,248.674741 25.0208607,246.682185 C26.8292022,241.276239 28.6947161,235.688188 30.9498492,230.303416 L31.7142652,228.480259 L45.6368007,233.917968 L44.2837208,237.365238 C43.3541401,239.69871 42.4012669,242.102059 41.5690911,244.518113 L48.0994484,246.821939 C50.1280094,241.070842 52.4636074,235.389622 54.729328,229.875683 L34.5538272,221.189748 L36.6459131,216.541862 C39.4177152,210.365149 42.2848047,203.983041 45.5626883,197.876205 L46.5028565,196.125043 L59.7774382,202.943354 L58.9029124,204.730514 C58.307896,205.937482 57.6789997,207.133863 57.0585735,208.330243 C56.24122,209.907772 55.4196316,211.476831 54.6658031,213.079769 L60.9590009,216.04637 C63.7625654,210.2381 66.4644902,204.963438 69.1812374,200.014868 L51.7711862,190.335831 L52.8426392,188.413152 L51.1189975,187.42005 L57.0014011,177.196818 C58.3438935,174.931106 59.7626157,172.739506 61.1749855,170.550023 L64.4422816,165.425703 L77.0223246,173.588619 L73.7804384,178.676942 C72.8148603,180.167654 71.8577522,181.65413 70.9239365,183.161782 L76.86563,186.740336 L78.7290263,183.777971 C81.2806089,179.701806 83.9105388,175.502828 86.7564532,171.473248 L68.8064406,158.939837 L76.8423375,147.683271 L85.4436058,136.727388 L97.140653,146.11633 L90.1253892,155.047894 L95.6541709,159.191818 C96.623984,157.96791 97.5832097,156.733414 98.5403178,155.501037 C101.223185,152.058001 103.980165,148.509091 106.925602,145.13805 L91.8532658,132.187494 L93.2868105,130.516796 L91.7579785,129.242068 C96.9860758,122.987009 102.72449,117.022045 107.785305,111.760088 L109.208262,110.288434 L119.891029,120.801761 L112.060529,129.017615 L117.136167,133.686676 L117.455909,133.34576 C121.451623,129.134077 125.568035,124.795344 129.889844,120.719179 L114.857741,104.890957 L116.263758,103.49765 C120.545335,99.2478515 125.157241,95.2754441 129.625157,91.4322035 L135.496973,86.33541 L145.07229,97.8863068 L136.494314,105.320807 L141.07234,110.481125 L147.854679,104.609331 L154.950408,98.985283 L142.738809,83.2375251 L144.479391,81.8886853 L143.217363,80.3429191 C147.628107,76.7389546 152.345888,73.4504958 156.911209,70.2721464 C158.744961,68.9910662 160.582947,67.7142209 162.401876,66.4119658 L164.093755,65.1986453 L172.462099,77.6600619 L163.187467,84.2052171 L167.223414,89.8017378 L174.624062,84.58213 L182.319042,79.6441481 L170.723635,61.0568388 L172.421867,59.9790374 C178.761649,55.9621628 185.213659,52.3243185 192.942519,48.0978125 L194.736038,47.1174156 L201.833885,60.4237099 L199.964136,61.3511696 C197.783115,62.424736 195.678324,63.652879 193.582003,64.8789046 C193.012397,65.2134677 192.44279,65.5437958 191.873184,65.8741239 L195.305645,71.8200301 C200.52739,68.7750824 205.941827,66.0138781 211.205921,63.3352559 L202.409843,45.4467176 L204.389702,44.4747907 L203.532116,42.6749259 C210.030711,39.572806 217.602876,36.0111913 225.172924,32.9768311 L227.036321,32.2314753 L232.738737,46.1581936 L230.780053,46.8844919 C228.027309,47.9051211 225.361381,49.1184417 222.689101,50.3317623 L222.257132,50.5265712 L225.077637,56.7985705 C229.467206,54.791192 233.983825,53.025207 238.362806,51.3121593 C239.550721,50.8484294 240.734401,50.386817 241.922317,49.9188522 L234.288744,29.2796971 L236.260133,28.6126884 C238.184936,27.9583846 240.103388,27.2871409 242.028191,26.6158973 C247.470156,24.7122756 253.094225,22.7472468 258.792406,21.207833 L260.698153,20.691166 L264.941614,35.0879666 L262.927876,35.619456 C260.247126,36.3330495 257.452031,37.1906321 254.057685,38.344663 L256.223884,44.8792309 C260.283123,43.4922762 264.424945,42.3445978 268.448188,41.2307991 C270.137949,40.7607168 271.829828,40.2927519 273.515355,39.8057297 L268.520182,20.4667122 L270.654618,19.9161654 L270.226884,17.9701939 C272.731882,17.4217646 275.219939,16.8267504 277.712232,16.2338538 C282.81328,15.0162982 288.090079,13.7563929 293.402877,12.9284551 L295.340385,12.6277718 L298.086777,27.3527831 L296.047629,27.6915811 C292.784568,28.2273056 289.779841,28.8159672 286.936044,29.474506 L288.426761,36.2060002 C292.659635,35.2298383 296.958152,34.5035399 301.127501,33.7962989 C302.861731,33.5040856 304.589607,33.2097547 306.319601,32.898484 L303.020543,11.113768 L305.102041,10.8723743 C307.594334,10.5865135 310.082392,10.2540678 312.570449,9.92162223 C317.815487,9.22073372 323.238394,8.49867033 328.654948,8.20857448 L330.615749,8.10270008 L331.852367,23.0246377 L329.798396,23.1580394 C326.18383,23.3973156 323.242629,23.664119 320.544939,24.0071521 L321.345352,30.8635781 C325.540112,30.3384411 329.770868,30.0525802 333.880928,29.7730718 C335.691387,29.652375 337.497611,29.5274432 339.301717,29.3855715 L338.304377,9.43671749 L340.506572,9.32872561 L340.48328,7.34252191 C343.106857,7.31075959 345.730435,7.22394258 348.349777,7.13924306 C353.524937,6.96984403 358.869497,6.80256248 364.161119,7.05030857 L366.115568,7.14347804 L365.863586,22.1204703 L363.79691,22.0378883 C360.544436,21.910839 357.495242,21.8833117 354.522278,21.9658937 L354.632387,28.862552 C358.795384,28.7439726 362.947794,28.8900793 366.985858,29.0234811 C368.92972,29.0891232 370.875698,29.1547653 372.81956,29.1928801 L373.933362,7.16888789 L376.025448,7.35734432 C378.659613,7.59238549 381.293778,7.77237196 383.934296,7.95024095 C389.073458,8.30174395 394.392608,8.6617169 399.618588,9.43671749 L401.564566,9.72681334 L399.809162,24.6106362 L397.755191,24.3141879 C394.786462,23.8885728 391.75209,23.5624796 388.531379,23.321086 L387.957538,30.1880994 C392.114182,30.4951352 396.262357,31.054152 400.289834,31.5962289 C402.140525,31.8460925 403.989099,32.0938386 405.844025,32.3204098 L408.8424,12.5727172 L411.019185,12.9030453 L411.393982,10.9422514 C413.943447,11.4292737 416.51197,11.8675937 419.072022,12.3037962 C424.20695,13.1783187 429.513394,14.0824861 434.684319,15.4016811 L436.585831,15.8844683 L433.333357,30.5099576 L431.319618,30.0144654 C428.253484,29.2606397 425.206408,28.6105709 422.239796,28.0833164 L420.969299,34.8592779 C425.244523,35.6173385 429.471045,36.6337328 433.581104,37.6225996 C435.294158,38.0333923 437.00933,38.444185 438.720267,38.8401552 L444.244813,17.5106991 L446.245847,18.1014782 C448.507332,18.7663694 450.779406,19.3973808 453.051479,20.0326272 C458.298633,21.4936939 463.723658,23.0013453 468.966578,24.904967 L470.815152,25.5783282 L466.095253,39.7824373 L464.159862,39.1111937 C461.324535,38.1329142 458.332513,37.11652 455.300259,36.2419975 L453.341576,42.8718523 C458.036064,44.2397495 462.675497,45.8596278 467.175176,47.4371563 L470.438237,48.5678949 L477.366684,29.8620063 L479.431242,30.6285369 L480.166013,28.7799699 L484.930379,30.6560643 C490.601033,32.8751916 496.468614,35.1663136 502.090566,37.8491708 L503.884085,38.700401 L497.736994,52.322201 L493.031918,50.213183 C491.155817,49.3577179 489.273363,48.5001353 487.361264,47.7230172 L484.724982,54.1432406 C489.711685,56.2162614 494.960957,58.5814954 501.311327,61.6200906 L510.996754,41.9359226 L512.819917,42.8612648 C519.360862,46.1708985 526.776333,49.9209697 533.721719,54.088186 L535.436891,55.1130501 L527.953661,68.0403141 L526.215196,67.0641521 C525.033634,66.4077309 523.869011,65.7258998 522.702271,65.0483036 C521.171321,64.1568412 519.640372,63.2632613 518.081895,62.4205011 L514.804011,68.5485112 C519.977054,71.4198249 525.279263,74.3779555 530.403603,77.5668924 L540.940263,60.6883959 L542.805777,61.8551318 L543.879347,60.1823163 L553.810396,66.5517201 L565.183473,74.5875868 L556.395865,86.7419677 L547.127586,80.186225 L543.267391,85.9203824 C544.565416,86.8414896 545.871911,87.7541269 547.174171,88.6667642 C550.771796,91.1823399 554.477414,93.7720277 558.01575,96.5649943 L571.432204,79.2778227 L576.103399,82.9601342 C578.189133,84.5884824 580.276984,86.2210656 582.30131,87.9171735 L592.799854,96.9969618 L582.826449,108.200591 L574.242121,100.770325 L569.831377,106.07675 L572.334257,108.245058 C575.980585,111.389527 579.734905,114.625049 583.29865,118.051145 L596.992496,103.643757 L598.586971,105.159878 L599.935816,103.690341 C604.911931,108.261998 609.610654,113.214802 614.161153,118.008795 L618.012878,122.053197 L606.965902,132.200199 L599.135402,123.982228 L594.216459,128.812218 C598.449334,133.210241 602.580568,137.587088 606.52758,142.209565 L623.094868,127.992751 L624.416186,129.453817 C628.136626,133.576566 631.577557,138.004234 634.910495,142.283677 C636.367332,144.157654 637.824169,146.033748 639.310652,147.88655 L640.617147,149.519133 L628.58977,158.509987 L621.574506,149.576305 L616.189714,153.893863 L621.726966,160.940863 L626.976238,168.320309 L643.325424,156.923988 L644.585334,158.728088 L646.198866,157.565587 C650.040003,162.8826 653.548694,168.510882 656.949392,173.959179 L660.229393,179.189374 L647.310551,186.943615 L646.277213,185.171278 C645.055418,183.064377 643.727748,181.018884 642.404313,178.975508 C642.040104,178.416491 641.682247,177.861709 641.32439,177.302692 L635.556331,181.035824 C638.89774,186.177084 642.001989,191.508919 644.922016,196.63324 L664.085353,185.990746 L665.065754,187.767318 C668.923832,194.748676 672.561689,201.852848 675.869218,208.87232 L676.735274,210.708182 L663.088013,217.117818 L662.268542,215.182434 C661.266966,212.829905 660.085404,210.559958 658.910193,208.294246 C658.666681,207.819929 658.425287,207.349847 658.183892,206.875529 L652.064329,210.005176 C654.503685,214.703882 656.68047,219.546577 658.793731,224.251635 L659.725429,226.318304 L678.052356,218.443366 L678.924765,220.467684 L680.771221,219.713859 L682.168768,223.139954 C684.650473,229.206557 687.212643,235.482791 689.330139,241.83949 L689.963271,243.726172 L675.784518,248.695916 L675.151387,246.709713 C674.226041,243.789697 673.099533,240.863328 671.964556,238.008955 L665.554896,240.505473 C667.221365,244.687512 668.650675,248.969072 670.035517,253.127819 C670.541598,254.646057 671.04768,256.164296 671.564349,257.6783 L692.582613,251.1035 L693.141632,253.123584 C693.783233,255.437998 694.458714,257.739707 695.138431,260.049887 C696.66091,265.229262 698.238445,270.588624 699.371305,276.007276 L699.769394,277.929955 L685.198905,281.42381 L684.762701,279.395257 C684.140157,276.460418 683.379976,273.440881 682.509685,270.38958 L675.862866,272.223325 C677.019018,276.244435 677.931659,280.339656 678.816772,284.318416 C679.214862,286.130986 679.623538,287.945673 680.04492,289.745538 L699.616934,285.745603 L700.059491,287.905441 L702.02241,287.581465 C702.437439,290.077983 702.896935,292.570267 703.360667,295.064667 C704.319893,300.244043 705.315116,305.605523 705.874135,310.971237 L706.079532,312.925678 L691.231651,314.92247 L691.000844,312.872741 C690.594284,309.378886 690.168668,306.405933 689.683761,303.670139 L682.880247,304.824169 C683.642545,309.145962 684.159214,313.52281 684.661061,317.770491 C684.860106,319.464481 685.061268,321.162707 685.277252,322.860932 L707.201805,320.662979 L707.335207,322.759292 C707.498254,325.300278 707.707886,327.841264 707.917518,330.380132 C708.351605,335.614562 708.792044,341.022626 708.808984,346.403163 M708.736989,285.936177 C703.894276,262.283836 696.591033,239.021114 687.015716,216.785373 L687.017834,216.783255 C677.478515,194.619509 665.620538,173.328168 651.769997,153.49154 L651.769997,153.489423 C637.966042,133.703616 622.091175,115.234886 604.583719,98.5914303 L604.581602,98.5935478 C587.084733,81.9458575 567.834578,67.0154499 547.36898,54.2194702 L547.36898,54.2194702 C526.839858,41.3811408 504.96189,30.615832 482.338564,22.2221098 L482.338564,22.2199923 C459.615716,13.7881552 436.007754,7.68555496 412.177456,4.07947297 C388.256105,0.460686059 363.934547,-0.76110449 339.886146,0.456451083 C315.562471,1.67612414 291.46325,5.34149579 268.261848,11.3509266 L268.261848,11.3530441 C244.893163,17.3963547 222.026325,25.8790114 200.300817,36.5765606 C178.657892,47.2296425 157.995367,60.146319 138.889202,74.9666172 L138.891319,74.9687347 C119.816916,89.7615055 102.161236,106.546833 86.4197714,124.865221 C70.6592495,143.198431 56.7155391,163.181165 44.9803769,184.252288 C33.2049823,205.401758 23.5682586,227.79631 16.3391276,250.813404 L16.3412451,250.815522 C9.11846665,273.756386 4.23552114,297.648003 1.80887086,321.823363 L1.80887086,321.823363 C-0.602956953,345.829324 -0.602956953,370.1762 1.80887086,394.186396 L1.80887086,394.186396 C4.22705116,418.334229 9.11846665,442.22161 16.3370101,465.185767 L16.3412451,465.185767 C23.5703761,488.207096 33.2070998,510.603766 44.9846119,531.755353 C56.7324791,552.841298 70.6761895,572.82615 86.4367113,591.157243 L86.4345938,591.157243 C102.161236,609.454456 119.810564,626.239783 138.887084,641.038907 L138.891319,641.034672 C158.003837,655.86344 178.670597,668.780116 200.311405,679.428963 L200.311405,679.426846 C222.026325,690.12016 244.886811,698.604934 268.261848,704.650362 L268.261848,704.648245 C291.473838,710.655558 315.573058,714.323047 339.896734,715.540603 C363.962074,716.764511 388.273045,715.538485 412.183808,711.915463 C436.028929,708.309381 459.639008,702.206781 482.366092,693.768592 L482.366092,693.770709 C504.991535,685.374869 526.865268,674.609561 547.373215,661.775466 L547.375333,661.775466 C567.813403,649.002779 587.061441,634.074489 604.583719,617.407741 L604.581602,617.405624 C622.080588,600.774873 637.959689,582.295556 651.782702,562.490691 L651.78482,562.492809 C665.63536,542.649829 677.493337,521.35637 687.024186,499.201094 C696.597385,476.954765 703.909099,453.683573 708.741224,430.037585 L708.745459,430.037585 C713.552175,406.482649 716,382.239529 716,357.998527 C716,333.73635 713.54794,309.49323 708.736989,285.936177" id="Fill-110"></path>
                </g>
            </g>
        </g>
    </g>
</svg>