<svg width="25" height="25" viewBox="0 0 25 25" fill="none" xmlns="http://www.w3.org/2000/svg">
<path fill-rule="evenodd" clip-rule="evenodd" d="M12.5 25C19.4033 25 25 19.4033 25 12.5C25 5.59668 19.4033 0 12.5 0C5.59668 0 0 5.59668 0 12.5C0 19.4033 5.59668 25 12.5 25ZM11.3896 5.52344C11.5195 5.66113 11.6279 5.81787 11.7109 5.9834L12.4873 7.53613C12.6963 7.9541 12.7412 8.4082 12.6553 8.83545C12.5693 9.26562 12.3496 9.66846 12.0303 9.97949C11.6543 10.3452 11.2773 10.7627 11.0576 11.1313C11.043 11.1577 11.0391 11.1885 11.0449 11.2178C11.2471 12.3149 11.9912 13.3989 12.6553 14.1763C12.6885 14.2134 12.7314 14.2397 12.7803 14.252C12.8281 14.2646 12.8789 14.2627 12.9258 14.2466L14.417 13.7803C14.8184 13.6553 15.25 13.6616 15.6475 13.7988C16.0449 13.9365 16.3887 14.1978 16.627 14.5444L17.7051 16.1133C17.998 16.5396 18.1455 17.1172 17.9219 17.6724C17.7207 18.168 17.334 18.8838 16.6289 19.3599C15.8984 19.853 14.8965 20.0405 13.5859 19.5913C12.1045 19.0835 10.8125 17.7583 9.76465 16.1025C8.70801 14.4351 7.8584 12.3677 7.28613 10.2715C6.75 8.30566 7.01074 6.99414 7.70801 6.15283C8.3877 5.33398 9.38574 5.08447 10.0566 5.00977C10.5947 4.94971 11.0615 5.17529 11.3896 5.52344Z" fill="#386ABF"/>
</svg>
