<?xml version="1.0" encoding="UTF-8"?>
<svg width="13px" height="13px" viewBox="0 0 13 13" version="1.1" xmlns="http://www.w3.org/2000/svg" xmlns:xlink="http://www.w3.org/1999/xlink">
    <title>Path 9</title>
    <g id="Page-1" stroke="none" stroke-width="1" fill="none" fill-rule="evenodd">
        <g id="Group-16" transform="translate(-645, -71)" fill="#C8B082">
            <path d="M645.028499,73.0561181 C645.260189,72.0866357 645.815364,71.2008935 647.093013,71.0130883 C648.370662,70.8252832 648.998958,72.7120629 649.306514,73.2442895 C649.61407,73.7765161 649.767452,74.3756372 649.452816,74.6925927 C649.138179,75.0095483 648.49084,75.3310815 648.49084,75.6973535 C648.49084,76.0636254 648.902889,76.9382592 650.170955,78.1434594 C651.439022,79.3486596 652.546932,80.5043603 653.047542,80.1308862 C653.548152,79.7574121 653.310298,79.081997 654.395626,78.9957543 C655.480953,78.9095117 657.617916,80.7394677 657.617916,81.4046899 C657.617916,82.0699121 656.946224,82.8061181 656.173702,83.2838403 C655.40118,83.7615625 654.308284,83.6751367 652.783748,82.8254663 C651.259212,81.9757959 649.266658,80.7796899 647.636226,78.616665 C646.005794,76.4536401 644.79681,74.0256005 645.028499,73.0561181 Z" id="Path-9"></path>
        </g>
    </g>
</svg>