<?xml version="1.0" encoding="UTF-8"?>
<svg width="14px" height="15px" viewBox="0 0 14 15" version="1.1" xmlns="http://www.w3.org/2000/svg" xmlns:xlink="http://www.w3.org/1999/xlink">
    <title>Group 4</title>
    <g id="Page-1" stroke="none" stroke-width="1" fill="none" fill-rule="evenodd">
        <g id="Главная-страница" transform="translate(-962, -70)" fill="#C8B082">
            <g id="Group-4" transform="translate(962, 70)">
                <path d="M2.94218556,1.99840144e-15 C3.19835021,1.94289029e-15 3.4060127,0.207662484 3.4060127,0.46382714 C3.4060127,0.719991795 3.19835021,0.927654279 2.94218556,0.927654279 L2.57357524,0.927654279 L2.57357524,1.80555492 L12.9346204,1.80555492 C13.0074294,1.80555492 13.0800207,1.81350658 13.1511032,1.82926847 C13.6902913,1.94882858 14.030467,2.48284954 13.9109069,3.02203765 L12.7489808,8.26205207 L2.57357524,9.19686635 L2.58040261,9.30678342 C2.63447407,9.73885045 3.00312017,10.0731333 3.44984221,10.0731333 L13.6312694,10.0731333 L13.6312694,11 L3.74088302,11 C2.63631352,11 1.74088302,10.1045695 1.74088302,9 L1.74088302,0.927654279 L0.46382714,0.927654279 C0.207662484,0.927654279 1.83186799e-15,0.719991795 1.77635684e-15,0.46382714 C1.72084569e-15,0.207662484 0.207662484,1.88737914e-15 0.46382714,1.83186799e-15 Z M13.1538196,2.75326197 L2.61039035,2.75326197 L2.61039035,8.22434513 L12.0232945,7.43572252 L13.1538196,2.75326197 Z" id="Combined-Shape"></path>
                <path d="M5,11 C6.1045695,11 7,11.8954305 7,13 C7,14.1045695 6.1045695,15 5,15 C3.8954305,15 3,14.1045695 3,13 C3,11.8954305 3.8954305,11 5,11 Z M4.98765432,12.037037 C4.44900623,12.037037 4.01234568,12.4736976 4.01234568,13.0123457 C4.01234568,13.5509938 4.44900623,13.9876543 4.98765432,13.9876543 C5.52630241,13.9876543 5.96296296,13.5509938 5.96296296,13.0123457 C5.96296296,12.4736976 5.52630241,12.037037 4.98765432,12.037037 Z" id="Combined-Shape"></path>
                <path d="M10,11 C11.1045695,11 12,11.8954305 12,13 C12,14.1045695 11.1045695,15 10,15 C8.8954305,15 8,14.1045695 8,13 C8,11.8954305 8.8954305,11 10,11 Z M9.98765432,12.037037 C9.44900623,12.037037 9.01234568,12.4736976 9.01234568,13.0123457 C9.01234568,13.5509938 9.44900623,13.9876543 9.98765432,13.9876543 C10.5263024,13.9876543 10.962963,13.5509938 10.962963,13.0123457 C10.962963,12.4736976 10.5263024,12.037037 9.98765432,12.037037 Z" id="Combined-Shape-Copy"></path>
            </g>
        </g>
    </g>
</svg>