<?xml version="1.0" encoding="UTF-8"?>
<svg width="10px" height="7px" viewBox="0 0 10 7" version="1.1" xmlns="http://www.w3.org/2000/svg" xmlns:xlink="http://www.w3.org/1999/xlink">
    <title>Group 2 Copy</title>
    <g id="Page-1" stroke="none" stroke-width="1" fill="none" fill-rule="evenodd">
        <g id="Главная-страница" transform="translate(-705, -28)" fill="#C8B082">
            <g id="Group-2-Copy" transform="translate(709.5556, 31.5556) rotate(90) translate(-709.5556, -31.5556)translate(706.0556, 26.0556)">
                <path d="M0.558787129,6.05713696 L5.68942519,5.98205446 C6.16570441,5.97508452 6.55745525,6.35553485 6.56442519,6.83181407 C6.56454831,6.84022708 6.56454831,6.84864144 6.56442519,6.85705446 C6.55718752,7.35162858 6.15800922,7.75080688 5.66343509,7.75804455 L0.53279703,7.83312706 C0.0565178134,7.840097 -0.335233031,7.45964666 -0.34220297,6.98336745 C-0.342326088,6.97495444 -0.342326088,6.96654007 -0.34220297,6.95812706 C-0.3349653,6.46355293 0.0642129992,6.06437463 0.558787129,6.05713696 Z" id="Rectangle" transform="translate(3.1111, 6.9076) rotate(-45) translate(-3.1111, -6.9076)"></path>
                <path d="M0.522932881,2.30168205 L5.72069271,2.37701464 C6.21526908,2.38418267 6.61450478,2.78330538 6.6218128,3.2778797 C6.62885047,3.75415826 6.24845557,4.14596349 5.77217701,4.15300116 C5.76376361,4.15312548 5.75534885,4.15312667 5.74693543,4.15300473 L0.549175591,4.07767215 C0.0545992218,4.07050412 -0.344636472,3.67138141 -0.351944492,3.17680709 C-0.358982166,2.70052853 0.021412734,2.3087233 0.497691298,2.30168563 C0.506104691,2.30156131 0.514519453,2.30156012 0.522932881,2.30168205 Z" id="Rectangle" transform="translate(3.1349, 3.2273) rotate(45) translate(-3.1349, -3.2273)"></path>
            </g>
        </g>
    </g>
</svg>