<?xml version="1.0" encoding="UTF-8"?>
<svg width="25px" height="25px" viewBox="0 0 25 25" version="1.1" xmlns="http://www.w3.org/2000/svg" xmlns:xlink="http://www.w3.org/1999/xlink">
    <title>Combined Shape</title>
    <g id="Page-1" stroke="none" stroke-width="1" fill="none" fill-rule="evenodd">
        <g id="Главная-страница" transform="translate(-1023, -19)" fill="#386ABF" fill-rule="nonzero">
            <g id="Instagram-Copy-3" transform="translate(1023, 19)">
                <path d="M12.5,0 C19.4035597,0 25,5.59644029 25,12.5 C25,19.4035597 19.4035597,25 12.5,25 C5.59644029,25 0,19.4035597 0,12.5 C0,5.59644029 5.59644029,0 12.5,0 Z M13.9741487,5.46875 C12.3407323,5.46875 11.2224587,6.5689791 11.2224587,8.58960389 L11.2224587,10.3307942 L9.375,10.3307942 L9.375,12.6917813 L11.2224006,12.6917813 L11.2224006,18.75 L13.4317494,18.75 L13.4317494,12.6917172 L15.2744425,12.6917172 L15.5503206,10.3307301 L13.4317494,10.3307301 L13.4317494,8.82331038 C13.4317494,8.13976379 13.6037736,7.67389003 14.4920811,7.67389003 L15.625,7.67331282 L15.625,5.56168104 C15.4289738,5.53301287 14.7565102,5.46875 13.9741487,5.46875 Z" id="Combined-Shape"></path>
            </g>
        </g>
    </g>
</svg>