<?xml version="1.0" encoding="UTF-8"?>
<svg width="25px" height="25px" viewBox="0 0 25 25" version="1.1" xmlns="http://www.w3.org/2000/svg" xmlns:xlink="http://www.w3.org/1999/xlink">
    <title>Instagram Copy 2</title>
    <g id="Page-1" stroke="none" stroke-width="1" fill="none" fill-rule="evenodd">
        <g id="Главная-страница" transform="translate(-1058, -19)" fill="#386ABF" fill-rule="nonzero">
            <g id="Group-3-Copy" transform="translate(1023, 19)">
                <g id="Instagram-Copy-2" transform="translate(35, 0)">
                    <path d="M0,12.5 C0,5.59644029 5.59644029,0 12.5,0 C19.4035597,0 25,5.59644029 25,12.5 C25,19.4035597 19.4035597,25 12.5,25 C5.59644029,25 0,19.4035597 0,12.5 Z M12.500625,5.83333333 C10.6900506,5.83333333 10.462826,5.84125008 9.7517075,5.87361154 C9.04197787,5.90611187 8.55752837,6.01847417 8.13363508,6.183337 C7.69515829,6.35361654 7.32320996,6.58139667 6.95265054,6.952095 C6.58181333,7.32265442 6.35403321,7.69460271 6.18319808,8.13294062 C6.01791858,8.55697283 5.90541742,9.04156121 5.87347262,9.75101304 C5.84166675,10.4621315 5.83333333,10.689495 5.83333333,12.5000695 C5.83333333,14.3106439 5.84138896,14.537174 5.87361154,15.2482925 C5.90625075,15.9580221 6.01861304,16.4424716 6.183337,16.8663649 C6.35375542,17.3048417 6.58153558,17.67679 6.95223387,18.0473495 C7.32265442,18.4181867 7.69460271,18.6465224 8.13280175,18.8168019 C8.55697283,18.9816647 9.04156121,19.094027 9.75115192,19.1265274 C10.4622705,19.1588888 10.6893561,19.1668055 12.4997917,19.1668055 C14.310505,19.1668055 14.5370351,19.1588888 15.2481536,19.1265274 C15.9578832,19.094027 16.4428883,18.9816647 16.8670594,18.8168019 C17.3053973,18.6465224 17.67679,18.4181867 18.0472105,18.0473495 C18.4180477,17.67679 18.6458279,17.3048417 18.816663,16.8665038 C18.9805536,16.4424716 19.0930548,15.9578832 19.1263885,15.2484314 C19.1583332,14.5373129 19.1666667,14.3106439 19.1666667,12.5000695 C19.1666667,10.689495 19.1583332,10.4622705 19.1263885,9.75115192 C19.0930548,9.04142229 18.9805536,8.55697283 18.816663,8.1330795 C18.6458279,7.69460271 18.4180477,7.32265442 18.0472105,6.952095 C17.6763734,6.58125779 17.3055362,6.35347762 16.8666427,6.183337 C16.4416383,6.01847417 15.956911,5.90611187 15.2471814,5.87361154 C14.5360629,5.84125008 14.3096716,5.83333333 12.4985417,5.83333333 L12.500625,5.83333333 Z" id="Combined-Shape"></path>
                    <path d="M11.9025632,7.03473475 C12.0800651,7.03445696 12.2781227,7.03473475 12.500625,7.03473475 C14.2806435,7.03473475 14.491618,7.04112371 15.194542,7.07306846 C15.8445487,7.102791 16.1973302,7.21140325 16.4323326,7.30265421 C16.743447,7.42348879 16.9652548,7.56793475 17.1984517,7.8012705 C17.4317875,8.03460625 17.5762334,8.25683079 17.6973458,8.56794517 C17.7885968,8.80266983 17.8973479,9.15545129 17.9269315,9.80545804 C17.9588763,10.5082431 17.9658208,10.7193565 17.9658208,12.4985417 C17.9658208,14.2777268 17.9588763,14.4888402 17.9269315,15.1916252 C17.897209,15.841632 17.7885968,16.1944135 17.6973458,16.4291382 C17.5765112,16.7402525 17.4317875,16.9617826 17.1984517,17.1949795 C16.965116,17.4283152 16.7435859,17.5727612 16.4323326,17.6935957 C16.197608,17.7852634 15.8445487,17.8935978 15.194542,17.9233204 C14.4917569,17.9552652 14.2806435,17.9622097 12.500625,17.9622097 C10.7204676,17.9622097 10.5094932,17.9552652 9.80670804,17.9233204 C9.15670129,17.8933201 8.80391983,17.7847078 8.5687785,17.6934569 C8.25766413,17.5726223 8.03543963,17.4281763 7.80210383,17.1948406 C7.56876808,16.9615048 7.42432213,16.7398358 7.30320975,16.4285826 C7.21195879,16.1938579 7.10320767,15.8410765 7.07362404,15.1910697 C7.04167925,14.4882846 7.03529029,14.2771713 7.03529029,12.496875 C7.03529029,10.7165786 7.04167925,10.5065765 7.07362404,9.80379137 C7.10334658,9.15378458 7.21195879,8.80100312 7.30320975,8.56600071 C7.42404433,8.25488633 7.56876808,8.03266179 7.80210383,7.79932604 C8.03543963,7.56599025 8.25766413,7.42154433 8.5687785,7.30043196 C8.80378096,7.20876433 9.15670129,7.10042987 9.80670804,7.07056846 C10.4217145,7.04279037 10.6600503,7.03445696 11.9025632,7.03306804 L11.9025632,7.03473475 Z M16.0592732,8.14169071 C15.6176019,8.14169071 15.2592648,8.49961112 15.2592648,8.94142125 C15.2592648,9.38309254 15.6176019,9.74142958 16.0592732,9.74142958 C16.5009445,9.74142958 16.8592815,9.38309254 16.8592815,8.94142125 C16.8592815,8.49975 16.5009445,8.14141292 16.0592732,8.14141292 L16.0592732,8.14169071 Z M12.500625,9.07642267 C10.6099109,9.07642267 9.07697825,10.6093553 9.07697825,12.5000695 C9.07697825,14.3907836 10.6099109,15.9230217 12.500625,15.9230217 C14.3913392,15.9230217 15.9237162,14.3907836 15.9237162,12.5000695 C15.9237162,10.6093553 14.3912002,9.07642267 12.5004861,9.07642267 L12.500625,9.07642267 Z" id="Combined-Shape"></path>
                    <path d="M12.500625,10.2778241 C13.72786,10.2778241 14.7228704,11.2726955 14.7228704,12.5000695 C14.7228704,13.7273045 13.72786,14.7223148 12.500625,14.7223148 C11.2732511,14.7223148 10.2783796,13.7273045 10.2783796,12.5000695 C10.2783796,11.2726955 11.2732511,10.2778241 12.500625,10.2778241 L12.500625,10.2778241 Z" id="Shape"></path>
                </g>
            </g>
        </g>
    </g>
</svg>