<svg width="25" height="25" viewBox="0 0 25 25" fill="none" xmlns="http://www.w3.org/2000/svg">
<path fill-rule="evenodd" clip-rule="evenodd" d="M12.5 25C19.4033 25 25 19.4033 25 12.5C25 5.59668 19.4033 0 12.5 0C5.59668 0 0 5.59668 0 12.5C0 19.4033 5.59668 25 12.5 25ZM21 12C21 7.58154 17.418 4 13 4C8.58203 4 5 7.58154 5 12C4.99707 13.4146 5.37207 14.8037 6.08496 16.0254L5.00293 20L8.97559 18.916C9.59863 19.2793 10.2646 19.5547 10.9561 19.7368C11.6201 19.9121 12.3066 20.001 13 20C17.418 20 21 16.4185 21 12ZM9.81641 8.32617C9.90918 8.28076 10.0098 8.25342 10.1133 8.24658L10.2734 8.24023L10.1123 8.24561C10.2197 8.2373 10.3271 8.23633 10.4346 8.24219L10.5645 8.25537C10.6914 8.27051 10.8311 8.34717 10.8779 8.45459C11.1172 8.99561 11.3486 9.54004 11.5732 10.0874C11.6113 10.1816 11.6025 10.2969 11.5508 10.415C11.5361 10.4487 11.5186 10.4824 11.498 10.5161C11.4707 10.561 11.4346 10.6162 11.3916 10.6763C11.3604 10.7202 11.3252 10.7671 11.2881 10.8145C11.1973 10.9297 11.0029 11.1426 11.0029 11.1426C11.0029 11.1426 10.9238 11.2368 10.9541 11.3545C10.9756 11.4121 11.0029 11.4668 11.0361 11.5186L11.083 11.5942C11.208 11.7988 11.3467 11.9937 11.499 12.1777C11.624 12.3291 11.7578 12.4731 11.8994 12.6089L11.9727 12.6807C12.0439 12.75 12.1143 12.8198 12.1895 12.8857C12.4053 13.0757 12.6367 13.2461 12.8818 13.394C13.0645 13.5044 13.2539 13.6025 13.4492 13.688L13.6514 13.7744C13.6826 13.7876 13.7148 13.7998 13.748 13.8105L13.8037 13.8271C13.8574 13.8408 13.915 13.8384 13.9668 13.8198C14.0195 13.8018 14.0654 13.7676 14.0986 13.7231C14.6768 13.0225 14.7305 12.9766 14.7344 12.9785C14.7744 12.9409 14.8223 12.9121 14.875 12.8945C14.9268 12.877 14.9824 12.8711 15.0371 12.877C15.0635 12.8779 15.0898 12.8818 15.1152 12.8887C15.1367 12.894 15.1572 12.9009 15.1777 12.9097C15.6035 13.103 16.2988 13.4062 16.2988 13.4062L16.7646 13.6152C16.8428 13.6528 16.9141 13.7417 16.917 13.8271V13.8413C16.9199 13.896 16.9229 13.9805 16.9053 14.1255C16.8799 14.333 16.8174 14.5815 16.7549 14.7119C16.71 14.8037 16.6543 14.8843 16.5869 14.9536C16.498 15.0474 16.4316 15.104 16.3232 15.1841L16.2236 15.2559C16.124 15.3193 16.0215 15.3779 15.917 15.4321C15.7705 15.5098 15.6143 15.564 15.4512 15.5933C15.3848 15.6055 15.3174 15.6133 15.25 15.6167C15.1592 15.6211 15.0684 15.627 14.9775 15.6289C14.9199 15.6304 14.8623 15.6304 14.8057 15.627L14.3516 15.5576C13.2139 15.2583 12.1621 14.6978 11.2793 13.9209C11.1602 13.8159 11.0469 13.7061 10.9346 13.5942L10.7588 13.4199C10.0488 12.7119 9.51074 11.9478 9.18359 11.2266C9.12793 11.1016 9.0791 10.9736 9.03906 10.8433C8.96387 10.6011 8.91992 10.3506 8.91895 10.0962C8.91699 9.61084 9.07617 9.13818 9.37207 8.75342C9.43066 8.67773 9.48438 8.59912 9.58105 8.50879C9.65039 8.43701 9.72949 8.37549 9.81641 8.32617Z" fill="#386ABF"/>
</svg>
